<mxfile host="app.diagrams.net" agent="Mozilla/5.0 (Windows NT 10.0; Win64; x64) AppleWebKit/537.36 (KHTML, like Gecko) Chrome/128.0.0.0 Safari/537.36 Edg/128.0.0.0" version="24.7.6">
  <diagram name="Page-1" id="42789a77-a242-8287-6e28-9cd8cfd52e62">
    <mxGraphModel dx="2438" dy="783" grid="1" gridSize="10" guides="1" tooltips="1" connect="1" arrows="1" fold="1" page="1" pageScale="1" pageWidth="1654" pageHeight="1169" background="#C2C2C2" math="0" shadow="0">
      <root>
        <mxCell id="0" />
        <mxCell id="1" parent="0" />
        <mxCell id="1ea317790d2ca983-12" style="edgeStyle=none;rounded=1;html=1;labelBackgroundColor=none;startArrow=none;startFill=0;startSize=5;endArrow=classicThin;endFill=1;endSize=5;jettySize=auto;orthogonalLoop=1;strokeColor=#B3B3B3;strokeWidth=1;fontFamily=Verdana;fontSize=10;" parent="1" source="1ea317790d2ca983-1" target="1ea317790d2ca983-2" edge="1">
          <mxGeometry relative="1" as="geometry" />
        </mxCell>
        <mxCell id="1ea317790d2ca983-1" value="ICTPRG434" style="ellipse;whiteSpace=wrap;html=1;rounded=0;shadow=1;comic=0;labelBackgroundColor=none;strokeWidth=1;fontFamily=Verdana;fontSize=10;align=center;" parent="1" vertex="1">
          <mxGeometry x="450" y="50" width="90" height="60" as="geometry" />
        </mxCell>
        <mxCell id="1ea317790d2ca983-2" value="Topic 2&lt;br style=&quot;font-size: 10px;&quot;&gt;Bugs" style="ellipse;whiteSpace=wrap;html=1;rounded=0;shadow=1;comic=0;labelBackgroundColor=none;strokeWidth=1;fontFamily=Verdana;fontSize=10;align=center;" parent="1" vertex="1">
          <mxGeometry x="457.5" y="190" width="75" height="50" as="geometry" />
        </mxCell>
        <mxCell id="1ea317790d2ca983-3" value="Topic 3&lt;br style=&quot;font-size: 10px;&quot;&gt;Better Code" style="ellipse;whiteSpace=wrap;html=1;rounded=0;shadow=1;comic=0;labelBackgroundColor=none;strokeWidth=1;fontFamily=Verdana;fontSize=10;align=center;" parent="1" vertex="1">
          <mxGeometry x="870" y="190" width="75" height="50" as="geometry" />
        </mxCell>
        <mxCell id="1ea317790d2ca983-4" value="IDE&#39;s and Debuggers" style="ellipse;whiteSpace=wrap;html=1;rounded=0;shadow=1;comic=0;labelBackgroundColor=none;strokeWidth=1;fontFamily=Verdana;fontSize=10;align=center;" parent="1" vertex="1">
          <mxGeometry x="550" y="320" width="75" height="50" as="geometry" />
        </mxCell>
        <mxCell id="1ea317790d2ca983-6" value="Exception Handling" style="ellipse;whiteSpace=wrap;html=1;rounded=0;shadow=1;comic=0;labelBackgroundColor=none;strokeWidth=1;fontFamily=Verdana;fontSize=10;align=center;" parent="1" vertex="1">
          <mxGeometry x="457.5" y="320" width="75" height="50" as="geometry" />
        </mxCell>
        <mxCell id="1ea317790d2ca983-7" value="Types of errors" style="ellipse;whiteSpace=wrap;html=1;rounded=0;shadow=1;comic=0;labelBackgroundColor=none;strokeWidth=1;fontFamily=Verdana;fontSize=10;align=center;" parent="1" vertex="1">
          <mxGeometry x="370" y="320" width="75" height="50" as="geometry" />
        </mxCell>
        <mxCell id="1ea317790d2ca983-9" value="Topic 1&lt;br style=&quot;font-size: 10px;&quot;&gt;Basics" style="ellipse;whiteSpace=wrap;html=1;rounded=0;shadow=1;comic=0;labelBackgroundColor=none;strokeWidth=1;fontFamily=Verdana;fontSize=10;align=center;" parent="1" vertex="1">
          <mxGeometry x="165" y="190" width="75" height="50" as="geometry" />
        </mxCell>
        <mxCell id="1ea317790d2ca983-10" value="What makes a good automation target?" style="ellipse;whiteSpace=wrap;html=1;rounded=0;shadow=1;comic=0;labelBackgroundColor=none;strokeWidth=1;fontFamily=Verdana;fontSize=10;align=center;" parent="1" vertex="1">
          <mxGeometry x="270" y="320" width="75" height="50" as="geometry" />
        </mxCell>
        <mxCell id="kqiXu0wrVsHxN1U2dNxY-1" value="High level functions (from pseudo)" style="ellipse;whiteSpace=wrap;html=1;rounded=0;shadow=1;comic=0;labelBackgroundColor=none;strokeWidth=1;fontFamily=Verdana;fontSize=10;align=center;" vertex="1" parent="1">
          <mxGeometry x="870" y="320" width="75" height="50" as="geometry" />
        </mxCell>
        <mxCell id="kqiXu0wrVsHxN1U2dNxY-2" value="Standards and Guidelines" style="ellipse;whiteSpace=wrap;html=1;rounded=0;shadow=1;comic=0;labelBackgroundColor=none;strokeWidth=1;fontFamily=Verdana;fontSize=10;align=center;" vertex="1" parent="1">
          <mxGeometry x="610" y="420" width="75" height="50" as="geometry" />
        </mxCell>
        <mxCell id="kqiXu0wrVsHxN1U2dNxY-3" value="Documentation&lt;div style=&quot;font-size: 10px;&quot;&gt;(inline, tech, user)&lt;/div&gt;" style="ellipse;whiteSpace=wrap;html=1;rounded=0;shadow=1;comic=0;labelBackgroundColor=none;strokeWidth=1;fontFamily=Verdana;fontSize=10;align=center;" vertex="1" parent="1">
          <mxGeometry x="765" y="320" width="75" height="50" as="geometry" />
        </mxCell>
        <mxCell id="kqiXu0wrVsHxN1U2dNxY-4" value="What is UAT and scope creep?" style="ellipse;whiteSpace=wrap;html=1;rounded=0;shadow=1;comic=0;labelBackgroundColor=none;strokeWidth=1;fontFamily=Verdana;fontSize=10;align=center;" vertex="1" parent="1">
          <mxGeometry x="720" y="420" width="75" height="50" as="geometry" />
        </mxCell>
        <mxCell id="kqiXu0wrVsHxN1U2dNxY-5" value="Testing" style="ellipse;whiteSpace=wrap;html=1;rounded=0;shadow=1;comic=0;labelBackgroundColor=none;strokeWidth=1;fontFamily=Verdana;fontSize=10;align=center;" vertex="1" parent="1">
          <mxGeometry x="370" y="420" width="75" height="50" as="geometry" />
        </mxCell>
        <mxCell id="kqiXu0wrVsHxN1U2dNxY-6" value="Version Control" style="ellipse;whiteSpace=wrap;html=1;rounded=0;shadow=1;comic=0;labelBackgroundColor=none;strokeWidth=1;fontFamily=Verdana;fontSize=10;align=center;" vertex="1" parent="1">
          <mxGeometry x="980" y="320" width="75" height="50" as="geometry" />
        </mxCell>
        <mxCell id="kqiXu0wrVsHxN1U2dNxY-7" value="Thinking in Algorithms" style="ellipse;whiteSpace=wrap;html=1;rounded=0;shadow=1;comic=0;labelBackgroundColor=none;strokeWidth=1;fontFamily=Verdana;fontSize=10;align=center;" vertex="1" parent="1">
          <mxGeometry x="60" y="320" width="75" height="50" as="geometry" />
        </mxCell>
        <mxCell id="kqiXu0wrVsHxN1U2dNxY-8" value="Pseudo Code" style="ellipse;whiteSpace=wrap;html=1;rounded=0;shadow=1;comic=0;labelBackgroundColor=none;strokeWidth=1;fontFamily=Verdana;fontSize=10;align=center;" vertex="1" parent="1">
          <mxGeometry x="60" y="400" width="75" height="50" as="geometry" />
        </mxCell>
        <mxCell id="kqiXu0wrVsHxN1U2dNxY-9" value="Execution Flow Control" style="ellipse;whiteSpace=wrap;html=1;rounded=0;shadow=1;comic=0;labelBackgroundColor=none;strokeWidth=1;fontFamily=Verdana;fontSize=10;align=center;" vertex="1" parent="1">
          <mxGeometry x="165" y="400" width="75" height="50" as="geometry" />
        </mxCell>
        <mxCell id="kqiXu0wrVsHxN1U2dNxY-10" value="Working with others" style="ellipse;whiteSpace=wrap;html=1;rounded=0;shadow=1;comic=0;labelBackgroundColor=none;strokeWidth=1;fontFamily=Verdana;fontSize=10;align=center;" vertex="1" parent="1">
          <mxGeometry x="660" y="320" width="80" height="50" as="geometry" />
        </mxCell>
        <mxCell id="kqiXu0wrVsHxN1U2dNxY-11" value="Lifecycle" style="ellipse;whiteSpace=wrap;html=1;rounded=0;shadow=1;comic=0;labelBackgroundColor=none;strokeWidth=1;fontFamily=Verdana;fontSize=10;align=center;" vertex="1" parent="1">
          <mxGeometry x="165" y="320" width="75" height="50" as="geometry" />
        </mxCell>
        <mxCell id="kqiXu0wrVsHxN1U2dNxY-12" value="Loops and iteration" style="ellipse;whiteSpace=wrap;html=1;rounded=0;shadow=1;comic=0;labelBackgroundColor=none;strokeWidth=1;fontFamily=Verdana;fontSize=10;align=center;" vertex="1" parent="1">
          <mxGeometry x="267.5" y="400" width="80" height="50" as="geometry" />
        </mxCell>
        <mxCell id="kqiXu0wrVsHxN1U2dNxY-13" value="Code Re-use" style="ellipse;whiteSpace=wrap;html=1;rounded=0;shadow=1;comic=0;labelBackgroundColor=none;strokeWidth=1;fontFamily=Verdana;fontSize=10;align=center;" vertex="1" parent="1">
          <mxGeometry x="267.5" y="480" width="80" height="50" as="geometry" />
        </mxCell>
        <mxCell id="kqiXu0wrVsHxN1U2dNxY-14" value="Languages" style="ellipse;whiteSpace=wrap;html=1;rounded=0;shadow=1;comic=0;labelBackgroundColor=none;strokeWidth=1;fontFamily=Verdana;fontSize=10;align=center;" vertex="1" parent="1">
          <mxGeometry x="-50" y="320" width="80" height="50" as="geometry" />
        </mxCell>
        <mxCell id="kqiXu0wrVsHxN1U2dNxY-15" value="External code and libraries" style="ellipse;whiteSpace=wrap;html=1;rounded=0;shadow=1;comic=0;labelBackgroundColor=none;strokeWidth=1;fontFamily=Verdana;fontSize=10;align=center;" vertex="1" parent="1">
          <mxGeometry x="267.5" y="560" width="80" height="50" as="geometry" />
        </mxCell>
        <mxCell id="kqiXu0wrVsHxN1U2dNxY-17" value="" style="endArrow=classic;html=1;rounded=0;exitX=0;exitY=1;exitDx=0;exitDy=0;entryX=0.5;entryY=0;entryDx=0;entryDy=0;fontSize=10;" edge="1" parent="1" source="1ea317790d2ca983-9" target="kqiXu0wrVsHxN1U2dNxY-7">
          <mxGeometry width="50" height="50" relative="1" as="geometry">
            <mxPoint x="410" y="400" as="sourcePoint" />
            <mxPoint x="460" y="350" as="targetPoint" />
          </mxGeometry>
        </mxCell>
        <mxCell id="kqiXu0wrVsHxN1U2dNxY-18" value="" style="endArrow=classic;html=1;rounded=0;exitX=0.5;exitY=1;exitDx=0;exitDy=0;entryX=0.5;entryY=0;entryDx=0;entryDy=0;fontSize=10;" edge="1" parent="1" source="1ea317790d2ca983-9" target="kqiXu0wrVsHxN1U2dNxY-11">
          <mxGeometry width="50" height="50" relative="1" as="geometry">
            <mxPoint x="231" y="243" as="sourcePoint" />
            <mxPoint x="108" y="330" as="targetPoint" />
          </mxGeometry>
        </mxCell>
        <mxCell id="kqiXu0wrVsHxN1U2dNxY-19" value="" style="endArrow=classic;html=1;rounded=0;exitX=1;exitY=1;exitDx=0;exitDy=0;entryX=0.5;entryY=0;entryDx=0;entryDy=0;fontSize=10;" edge="1" parent="1" source="1ea317790d2ca983-9" target="1ea317790d2ca983-10">
          <mxGeometry width="50" height="50" relative="1" as="geometry">
            <mxPoint x="258" y="250" as="sourcePoint" />
            <mxPoint x="213" y="330" as="targetPoint" />
          </mxGeometry>
        </mxCell>
        <mxCell id="kqiXu0wrVsHxN1U2dNxY-20" value="" style="endArrow=classic;html=1;rounded=0;exitX=0;exitY=1;exitDx=0;exitDy=0;entryX=1;entryY=0;entryDx=0;entryDy=0;fontSize=10;" edge="1" parent="1" source="1ea317790d2ca983-1" target="1ea317790d2ca983-9">
          <mxGeometry width="50" height="50" relative="1" as="geometry">
            <mxPoint x="213" y="250" as="sourcePoint" />
            <mxPoint x="213" y="330" as="targetPoint" />
          </mxGeometry>
        </mxCell>
        <mxCell id="kqiXu0wrVsHxN1U2dNxY-21" value="" style="endArrow=classic;html=1;rounded=0;exitX=0.5;exitY=1;exitDx=0;exitDy=0;entryX=0.5;entryY=0;entryDx=0;entryDy=0;fontSize=10;" edge="1" parent="1" source="1ea317790d2ca983-1" target="1ea317790d2ca983-2">
          <mxGeometry width="50" height="50" relative="1" as="geometry">
            <mxPoint x="473" y="141" as="sourcePoint" />
            <mxPoint x="239" y="207" as="targetPoint" />
            <Array as="points">
              <mxPoint x="495" y="160" />
            </Array>
          </mxGeometry>
        </mxCell>
        <mxCell id="kqiXu0wrVsHxN1U2dNxY-22" value="" style="endArrow=classic;html=1;rounded=0;exitX=1;exitY=1;exitDx=0;exitDy=0;entryX=0;entryY=0;entryDx=0;entryDy=0;fontSize=10;" edge="1" parent="1" source="1ea317790d2ca983-1" target="1ea317790d2ca983-3">
          <mxGeometry width="50" height="50" relative="1" as="geometry">
            <mxPoint x="505" y="150" as="sourcePoint" />
            <mxPoint x="505" y="200" as="targetPoint" />
            <Array as="points" />
          </mxGeometry>
        </mxCell>
        <mxCell id="kqiXu0wrVsHxN1U2dNxY-23" value="" style="endArrow=classic;html=1;rounded=0;entryX=0.5;entryY=0;entryDx=0;entryDy=0;exitX=1;exitY=1;exitDx=0;exitDy=0;fontSize=10;" edge="1" parent="1" source="1ea317790d2ca983-2" target="1ea317790d2ca983-4">
          <mxGeometry width="50" height="50" relative="1" as="geometry">
            <mxPoint x="500" y="260" as="sourcePoint" />
            <mxPoint x="579" y="327" as="targetPoint" />
          </mxGeometry>
        </mxCell>
        <mxCell id="kqiXu0wrVsHxN1U2dNxY-24" value="" style="endArrow=classic;html=1;rounded=0;entryX=0.5;entryY=0;entryDx=0;entryDy=0;exitX=0.5;exitY=1;exitDx=0;exitDy=0;fontSize=10;" edge="1" parent="1" source="1ea317790d2ca983-2" target="1ea317790d2ca983-6">
          <mxGeometry width="50" height="50" relative="1" as="geometry">
            <mxPoint x="532" y="243" as="sourcePoint" />
            <mxPoint x="581" y="337" as="targetPoint" />
          </mxGeometry>
        </mxCell>
        <mxCell id="kqiXu0wrVsHxN1U2dNxY-25" value="" style="endArrow=classic;html=1;rounded=0;entryX=0.5;entryY=0;entryDx=0;entryDy=0;exitX=0;exitY=1;exitDx=0;exitDy=0;fontSize=10;" edge="1" parent="1" source="1ea317790d2ca983-2" target="1ea317790d2ca983-7">
          <mxGeometry width="50" height="50" relative="1" as="geometry">
            <mxPoint x="542" y="253" as="sourcePoint" />
            <mxPoint x="591" y="347" as="targetPoint" />
          </mxGeometry>
        </mxCell>
        <mxCell id="kqiXu0wrVsHxN1U2dNxY-26" value="" style="endArrow=classic;html=1;rounded=0;exitX=0.5;exitY=1;exitDx=0;exitDy=0;entryX=0.5;entryY=0;entryDx=0;entryDy=0;fontSize=10;" edge="1" parent="1" source="kqiXu0wrVsHxN1U2dNxY-11" target="kqiXu0wrVsHxN1U2dNxY-9">
          <mxGeometry width="50" height="50" relative="1" as="geometry">
            <mxPoint x="220" y="380" as="sourcePoint" />
            <mxPoint x="250" y="390" as="targetPoint" />
          </mxGeometry>
        </mxCell>
        <mxCell id="kqiXu0wrVsHxN1U2dNxY-27" value="" style="endArrow=classic;html=1;rounded=0;exitX=0.5;exitY=1;exitDx=0;exitDy=0;entryX=0.5;entryY=0;entryDx=0;entryDy=0;fontSize=10;" edge="1" parent="1" source="kqiXu0wrVsHxN1U2dNxY-7" target="kqiXu0wrVsHxN1U2dNxY-8">
          <mxGeometry width="50" height="50" relative="1" as="geometry">
            <mxPoint x="97.21" y="370" as="sourcePoint" />
            <mxPoint x="97.21" y="400" as="targetPoint" />
          </mxGeometry>
        </mxCell>
        <mxCell id="kqiXu0wrVsHxN1U2dNxY-28" value="" style="endArrow=classic;html=1;rounded=0;exitX=0.5;exitY=1;exitDx=0;exitDy=0;entryX=0.5;entryY=0;entryDx=0;entryDy=0;fontSize=10;" edge="1" parent="1" source="1ea317790d2ca983-10" target="kqiXu0wrVsHxN1U2dNxY-12">
          <mxGeometry width="50" height="50" relative="1" as="geometry">
            <mxPoint x="223" y="390" as="sourcePoint" />
            <mxPoint x="223" y="420" as="targetPoint" />
          </mxGeometry>
        </mxCell>
        <mxCell id="kqiXu0wrVsHxN1U2dNxY-29" value="" style="endArrow=classic;html=1;rounded=0;exitX=0.5;exitY=1;exitDx=0;exitDy=0;entryX=0.5;entryY=0;entryDx=0;entryDy=0;fontSize=10;" edge="1" parent="1" source="kqiXu0wrVsHxN1U2dNxY-12" target="kqiXu0wrVsHxN1U2dNxY-13">
          <mxGeometry width="50" height="50" relative="1" as="geometry">
            <mxPoint x="233" y="400" as="sourcePoint" />
            <mxPoint x="233" y="430" as="targetPoint" />
          </mxGeometry>
        </mxCell>
        <mxCell id="kqiXu0wrVsHxN1U2dNxY-30" value="" style="endArrow=classic;html=1;rounded=0;exitX=0.5;exitY=1;exitDx=0;exitDy=0;entryX=0.5;entryY=0;entryDx=0;entryDy=0;fontSize=10;" edge="1" parent="1" source="kqiXu0wrVsHxN1U2dNxY-13" target="kqiXu0wrVsHxN1U2dNxY-15">
          <mxGeometry width="50" height="50" relative="1" as="geometry">
            <mxPoint x="243" y="410" as="sourcePoint" />
            <mxPoint x="243" y="440" as="targetPoint" />
          </mxGeometry>
        </mxCell>
        <mxCell id="kqiXu0wrVsHxN1U2dNxY-31" value="" style="endArrow=classic;html=1;rounded=0;entryX=0.5;entryY=0;entryDx=0;entryDy=0;exitX=0;exitY=0.5;exitDx=0;exitDy=0;fontSize=10;" edge="1" parent="1" source="1ea317790d2ca983-3" target="kqiXu0wrVsHxN1U2dNxY-10">
          <mxGeometry width="50" height="50" relative="1" as="geometry">
            <mxPoint x="532" y="243" as="sourcePoint" />
            <mxPoint x="608" y="330" as="targetPoint" />
          </mxGeometry>
        </mxCell>
        <mxCell id="kqiXu0wrVsHxN1U2dNxY-32" value="" style="endArrow=classic;html=1;rounded=0;entryX=0.5;entryY=0;entryDx=0;entryDy=0;exitX=0.5;exitY=1;exitDx=0;exitDy=0;fontSize=10;" edge="1" parent="1" source="1ea317790d2ca983-3" target="kqiXu0wrVsHxN1U2dNxY-1">
          <mxGeometry width="50" height="50" relative="1" as="geometry">
            <mxPoint x="542" y="253" as="sourcePoint" />
            <mxPoint x="618" y="340" as="targetPoint" />
          </mxGeometry>
        </mxCell>
        <mxCell id="kqiXu0wrVsHxN1U2dNxY-34" value="" style="endArrow=classic;html=1;rounded=0;entryX=0.5;entryY=0;entryDx=0;entryDy=0;exitX=0;exitY=1;exitDx=0;exitDy=0;fontSize=10;" edge="1" parent="1" source="kqiXu0wrVsHxN1U2dNxY-10" target="kqiXu0wrVsHxN1U2dNxY-2">
          <mxGeometry width="50" height="50" relative="1" as="geometry">
            <mxPoint x="781" y="243" as="sourcePoint" />
            <mxPoint x="810" y="330" as="targetPoint" />
          </mxGeometry>
        </mxCell>
        <mxCell id="kqiXu0wrVsHxN1U2dNxY-35" value="" style="endArrow=classic;html=1;rounded=0;exitX=0;exitY=0.5;exitDx=0;exitDy=0;entryX=0.5;entryY=0;entryDx=0;entryDy=0;fontSize=10;" edge="1" parent="1" source="1ea317790d2ca983-9" target="kqiXu0wrVsHxN1U2dNxY-14">
          <mxGeometry width="50" height="50" relative="1" as="geometry">
            <mxPoint x="186" y="243" as="sourcePoint" />
            <mxPoint x="108" y="330" as="targetPoint" />
          </mxGeometry>
        </mxCell>
        <mxCell id="kqiXu0wrVsHxN1U2dNxY-36" value="" style="endArrow=classic;html=1;rounded=0;entryX=0.5;entryY=0;entryDx=0;entryDy=0;exitX=0;exitY=1;exitDx=0;exitDy=0;fontSize=10;" edge="1" parent="1" source="1ea317790d2ca983-3" target="kqiXu0wrVsHxN1U2dNxY-3">
          <mxGeometry width="50" height="50" relative="1" as="geometry">
            <mxPoint x="781" y="243" as="sourcePoint" />
            <mxPoint x="710" y="330" as="targetPoint" />
          </mxGeometry>
        </mxCell>
        <mxCell id="kqiXu0wrVsHxN1U2dNxY-37" value="" style="endArrow=classic;html=1;rounded=0;entryX=0.479;entryY=-0.088;entryDx=0;entryDy=0;exitX=1;exitY=1;exitDx=0;exitDy=0;entryPerimeter=0;fontSize=10;" edge="1" parent="1" source="1ea317790d2ca983-3" target="kqiXu0wrVsHxN1U2dNxY-6">
          <mxGeometry width="50" height="50" relative="1" as="geometry">
            <mxPoint x="791" y="253" as="sourcePoint" />
            <mxPoint x="720" y="340" as="targetPoint" />
          </mxGeometry>
        </mxCell>
        <mxCell id="kqiXu0wrVsHxN1U2dNxY-38" value="" style="endArrow=classic;html=1;rounded=0;entryX=0.5;entryY=0;entryDx=0;entryDy=0;exitX=0.5;exitY=1;exitDx=0;exitDy=0;fontSize=10;" edge="1" parent="1" source="1ea317790d2ca983-7" target="kqiXu0wrVsHxN1U2dNxY-5">
          <mxGeometry width="50" height="50" relative="1" as="geometry">
            <mxPoint x="801" y="263" as="sourcePoint" />
            <mxPoint x="730" y="350" as="targetPoint" />
          </mxGeometry>
        </mxCell>
        <mxCell id="kqiXu0wrVsHxN1U2dNxY-39" value="" style="endArrow=classic;html=1;rounded=0;entryX=0.5;entryY=0;entryDx=0;entryDy=0;exitX=1;exitY=1;exitDx=0;exitDy=0;fontSize=10;" edge="1" parent="1" source="kqiXu0wrVsHxN1U2dNxY-10" target="kqiXu0wrVsHxN1U2dNxY-4">
          <mxGeometry width="50" height="50" relative="1" as="geometry">
            <mxPoint x="682" y="373" as="sourcePoint" />
            <mxPoint x="648" y="430" as="targetPoint" />
          </mxGeometry>
        </mxCell>
        <mxCell id="kqiXu0wrVsHxN1U2dNxY-41" value="" style="shape=image;verticalLabelPosition=bottom;labelBackgroundColor=default;verticalAlign=top;aspect=fixed;imageAspect=0;image=data:image/png,iVBORw0KGgoAAAANSUhEUgAAArsAAANZCAYAAAAPmPa/AAAAAXNSR0IArs4c6QAAAARnQU1BAACxjwv8YQUAAAAJcEhZcwAADsMAAA7DAcdvqGQAALUtSURBVHhe7d3PjxVfnNf/7u9ezeiOEEJoXBhNdDGy+AQwkkiTcWUkDqALEg3aaFwhmBlciT8acacwEk1YGBoTjG5GARNMaMKCcTEmYzQRCEHCatT4F/T3vg71gnefPvXr/uq61c9Hcqjb9fPUqXNvvevUqWJ9b2INAAAAGKH/rxoCAAAAo0OwCwAAgNEi2AUAAMBoEewCAABgtAh2AQAAMFoEuwAAABgtgl0AAACMFsEuAAAARotgFwAAAKNFsAsAAIDRItgFAADAaBHsAgAAYLQIdgEAADBaBLsAAAAYLYJdAAAAjBbBLgAAAEaLYBcAAACjRbALAACA0SLYBQAAwGgR7AIAAGC0CHYBAAAwWgS7AAAAGC2CXQAAAIwWwS4AAABGi2AXAAAAo0WwCwAAgNEi2AUAAMBoEewCAABgtAh2AQAAMFqDCnbv37+/tr6+3itdunRp7ebNm2vPnj1b+9//+39Xa1qeUp41Lqdxf/gP/+E0Xfk9jLyuqrdv3x4o43ml0rE6bP/hP/yHtdOnT6f8qX7/1//6X6spAACgr5Vv2X358uXao0eP1q5evbr2R//oH137zd/8zcEFkgpe7ty5s/Z//+//TX8rv3/v7/299BmIPn36tPZX/spfWfv48WP6W/X7L/7Fv5g+AwCA/kbVjUHB5D/8h/8wBb1qDRyK3/u936s+/fQ7v/M71Sfgp2/fvv24KDIFvtwJAABgOqPss6tg4dy5c6lrwxD8iT/xJ6pPP/3pP/2nq0/AT8eOHVv7lV/5leqv7zY2Ntb+yB/5I9VfAACgj5UIdre3t9f29vb2pd///d9f++3f/u21ra2taq6D1LVhCP0df+3Xfi3tg4MY5fnv//2/nz6j3dmzZw8c/zzVKc0b0+3bt6s5h+HUqVNr//pf/+sU4Mrm5ubav/23/zZ9BgAA/a1sy65auhREPnz4cO13f/d31371V3+1mrKf+jsO4Rawgqr/83/+TwqwlGda6lBH9frDhw+prrx48WLtT/7JP1lNAQAAfY2iG4OCAQUF+e1fUX/Hf/Wv/lX1FwAAAI6S0fTZVUupWkxLHj9+XH0CAADAUTKqB9SuXLnyo69jpNbdpr67enOD3n3rd5sq6Z24Wt88HnIrvSdW70+tm6ZU1/VCy+Xzlt4Vq1dY6TVsehAuzqvl/8W/+BeNXTva3h2sV6l5vSozl1HdvigvJaXt6Dgsm/ZH2y2Vlcqwrd936ZioLFQuqkN+v7KS5m2rU3E9Tk10LHVMte64LX32PmibpWNeqvtKKguNV9kAALDS9gZke3tbTxodSBrf1W/8xm8U1/Fbv/Vb1Rw//f7v//7er//6rxfnj+lXf/VX9373d3+3Wmq/Up7z/O7u7h6YZ3Nzs5q6lz7n00v5nQTtB+ZT0viorhxj+pVf+ZW93/7t366W2K9pn5SvfJrS1tZWml7al7w8THnI560r5zb5epyaaFs6tqXl8qR6ovpSUtrn0r7FpO3Wra80fx2Vbdu2nFQPIx2z0nx5ypcDAGCVjKplV06cOFF92u///b//V336Tq1cavX6N//m31Rj6v2X//Jf1v7sn/2zC3uzw/Xr16tPP/3Lf/kvq08/PX/+vPr0k97soCf4Ta1x+g8s2uj1bH/+z//5Xi3XauX7G3/jb1R/7ef+0n/7b//tNIxK3Ui03fx9snrzwLIextL2/9Sf+lPp2HaheqL3N3etA/m+5bRd1b+mFvY2PtZt2ypRa6/+cxMAAMZudMHuH//jf7z61Owv/+W/fCDQ2d7eTl0eJhcBaai/TQHFot7sUOp+obzlgVUpaLx27Vr16Xu3gDyA+fVf//X0tgrtk17XtrOzs+9Bvq6vZ9PFQimQtb/0l/5SGupNAvm+qCzz2+H/9J/+0+rTT6WgfxG0v9rvnI63ysjHX2UXqQ78tb/21zrVAZVxXN/u7u6BN4boGP/Nv/k3q7/6qQtWlWdtS9v0fuSv6FP+9Z+vRL/xG7/xYxnlWev4rd/6rQNlAADAypmc3AZDt2SVpTxpfFe65Vpah7o3WGke34bP5bd687yU8pzPU9pe7MYgkyD0wDwxT23r0C3x/Hb2JOispu6XbyvPS2mfmm6Va1pU2hd1A7DSvtTltat8fU4lpW4HsX5Eylc+b358S+srdRHRMSqtL++6kU9XiurqeKnrS0mf+g8AwKobXcvuf/tv/636tN8f+kN/qPq0tvb06dPq00+xhTTKxy/qzQ5/7s/9uQOvTotdDEp5ji2h/+k//acDt7Nv3LhRfdpPLcnRy5cvax8iM69brZOTYCm1ALr1O7Yaitaf74u6AXgbpX2py+u8KQ/a39xf/at/tfq039/5O3+n+vRTlzrwB//gH6w+/aQ3hpTWV8pPk1L5TQLutb/+1/969VezP/AH/kD16Se1EushNd0daKsLAACsktEFu1++fKk+7ReD3VevXlWfftJ/LxyfRnfS+EgB3iK6MigQ+rt/9+9Wf32nANNP0ee3rNVVIAatb968qT79pP6cpX1Syv2P//E/qk/1FMDqfcb6H81EfYX1n2X8g3/wD9LfUb4voj7HCqRKt9/rgs15e//+ffXpJ5Vl7PcclbrFqA5Mq7S+169fV5+6KdXfv/AX/kL1qZ36RWufc9ov1RlNU39ggl4AwBiMLtite+AsBhmzBCvy3//7f68+zdfly5erTz/9+3//71OrbS5vCZ01MPm93/u96lO9f/SP/lHn//lNwWveuqsW0dJ/8KGW4WX9j3KliyG1aPalV3YdllL97dpX3fRfEOfHJ9IFiVrx+zzACADAEI0q2NWJuRQI6KTu1sghU+ti3iVAwfvdu3erv77T/iyrJdTU2tf1NrkoeM27S+jY5A9GSZ/1Yj7UuqsH5NT9oY7uLOhBvsMM7AEAmNVogl3d6tet15L8lnrpFq77oXZJiwycS4FfHsAriMxbQku34dWftpT/UlJ3hCbT9Km9detW9amegq1lvW5MSq+mm6Zbyh/7Y3+s+rR8pfpb11e9ieqMuqWo7ucXWdG9e/eqTwAArJ5RBLt6lZTeWZo/oCWlVtD8FVDy7t276tPhUuDX1NompSCyFDD27Qs6bwqm2l5dtazXjdmZM2eqTz+phbMu4C0FkQo2p+128R//43+sPv104cKF6lM3pfr77/7dv6s+9aeLN/1X27qo0ivIcn0foAMAYEhWNthVcOL/6rTpPwfQSTwPTP7W3/pb1aef/vE//set75tVv9j81vwiNL3PVsFjqRVX/X3zPpgKUtr6XKoc9QT+om5Vl8raFDQuozwjlV3pYqLUl1j+yT/5J9Wnn6Z9c0Tdw3mlvtpNSmWqY63/MngWKhs9bFgKeAEAWFl7A1J6v+ssSe97rTMJeA7MPwkWUx7ie0/1blS9M1XvIfV8USnPGheV3muq7TeZBIIHllHSuurUlZ/yni+nv/VuWe2z5onTu+xTH6WynnWdudL6lUp0fL3fMSk/Ot6eR+8GzufRcfE8Vto/zRfrn+pQ6ZjG9w9bPo9SrpQ3JY2P9VeflQ+Nj+/hVV50/JWvj+G/m9bnX83+C2XNCwDAqhplsKtApinQFQUs+Um9a4q6BIbTBLul/5ihS9ARg/I+aZHBroKsfH1KedA4i9L6leqUyrctqV7FQNLqgvm2pPpXKoPSvLlp6m88hqXpdWmWYw8AwGEb1dsYJsFIetDmf/7P/9l6e1xdG/RwTp9btpNgM/3Xq8tQ+k8mujwopG4b+m9e82XraL5JMLPQh+7+83/+z9Wnn3Scpu33Og+qH5PAtfiwV4nr1bweplO/W9W/actgmvo7De1328OLAAAM2UoHuwrUNjc30wlfQaiCkVIf3TqaT30U9WCOAj6tKw8SNU4nfK3/w4cPa7/2a79WTVks5S2+RUL56tq/VW90UFko6P31X//1AwGdAi2N39nZSfMtMphRP9XSu4+H8LoxBa46pjq2OsZ5ObluqX70qVeislWdUlmbjqHL/Xd+53d6ra8k1l8d66b6q23GvsGxzuf7rb+1zO7ubtpvAABW2bqad6vPwNz95m/+5oF36yrAUqvkWOhNIPkbCxQorsK7nQEAGLtRdWPAsOhND6W3Dyz7dWMAAODoItjFwjx//vzAu491i3zZrxsDAABHF8EuFmae76gFAACYBsEuFkL/mYUegsrl/5sdAADAIhHsYiGePHlSffpJT/jP+gYCAACAPgh2MXf6r4fztxPIEF43BgAAjhaCXczdP/tn/6z69JNeNzav/5ABAACgK96zCwAAgNGiZRcAAACjRbALAACA0SLYBQAAwGgR7AIAAGC0CHYBAAAwWgS7AAAAGC2CXQAAAIwWwS4AAABGi2AXAAAAo0WwCwAAgNEi2AUAAMBoEewCAABgtAh2AQAAMFoEuwAAABgtgl0AAACMFsEuAAAARotgFwAAAKNFsAsAAIDRItgFAADAaBHsAgAAYLQIdgEAADBaBLsAAAAYLYJdAAAAjBbBLgAAAEaLYBcAAACjRbALAACA0RpksLu+vp7SPN28efPHevP07Nmzaq758fbevn1bjVmMS5cupe18+vSpGoMm9+/fn+sxn/f6AADAfI2+ZVdBoIKRR48eVWMOunr1agpa8JOCN4I4AACw6kYd7CrQ3djYSJ83NzfX9vb2imlrayvNg5++fPmybwgAALCKRh3sXrx4MQ23t7fXXrx4kT6XPHz4cO327dvVXxCVhy4EKJejhTscAICxGW2wq76yHz9+TC27BGxAO/Uzf/36dfUXAADjMNpg9927d2l448aNNJzG6dOnU79VJz0MVscPiilpuTp+oMlJAUYfMU9N+emynZhnpfiQW92DV3H+mHRxoaTPWm/+QGAX7l8dU/7gndfrPsVOdeU4TT6ifPmuLZ95/vJj5X3V+vN5LR7ruv3Lj2F+vHwcNWyqO5qufu0vX778MU/cZv5dAABgZewNkLI1a9a2trbSOnZ3d6sx3WkZ56GUcqV5nOL2nac8bW5uVnPU+/jxY3FZJ023LtspzbOxsVFN3dvb3t5O43Z2dtLfbdvXfjaVW1x3Hc1TWjaq2zcl5TmqW5+S96uJyqu0rPJgeTmJx+UplkFbeZZS1/2L89XlRcn7obw3TS+VQ5c6CwDAEIz+bQzTuH79ehpOAoXUb9VpElyk8bFVzK1fmhbnnQQKabyp1dNvhIjzaTm1prW9oszbmQQZ+5bX31HX7bjFdBKg/pinyfPnz9NwEhj9mF/l4/0+e/Zsmm75etWlJG+lzan10Msoed9KZRPLW3mSeAteLZXapsR1Ks9dqIVU5ZUfV1H51u2Lxt+5cyd91va9nPZFf+ctr6oncf3ansRy9v49fvw4DcX7F+uD99fbz3k+HRt59epVGp45c+bHsnF96ssuHz58SEPvj+cFAGAVjDbYPXnyZBq6O0NXCqx0MlcQkvf19UlfQZCDHQcMnlbH+XCgYU+ePEnDtnw68Gp60E66bscB/blz51LgJG37UKKyyoNRBUwx+HXg/+3btzSsk+/bhQsXqk8H3bt3r/q0tnblypU0jPl34DttYPbmzZs09PE1B57v379Pw5zHa75Tp06lz+LA0eutU+p2o/1zEGzev1hm2p6D+fyYxCBfx0brc9nEfJY4T1pGwbrmb6uHAAAMxWiD3V9++SUNY2tYF1+/fk1DB8s5tzaaAoY8ECn5/PlzGiq4jH0f9bd4eokDa7V8tum6HQVQDojVEqh5mlpeL1++nIZ6J7HX6RbEY8eOpeE8xfX7mPThwLctkKvjstCx9f4qaf+l7pVsHh/LScl1pKmM28TA3fsXt6E0S5nV0UWfg3zvFwAAq2K0wa5ar3zruO7hnpLjx4+nYV3wqRbWqEugKw6e4+39mNzyV9InYOuzHZWRxrnltWlflIdSK6m2M21AmVNrpIM2batrl4OSLhcGTbxPykdehkp1b/g4ceJEGsZuCDHNq0XU+1fahpJbu+dF69N6fbE3a/kCALAso+6z68BOfSybWqMUDDsg9i1eLePb++YTvE74Dob0Lt8uAbVbmtXCOk3rnrapQDvPU67rdrQvnq5ycsBb6h9rDx48SMMYVMXuCrNSnlX2Wu+sAbS7QORvHejq/Pnzadj1YsbU/1XUAtpUlrPy/s0r6HR5l7qyxO+OgnVfRM7SSg0AwLKsXLCroFIn37agT3QCj62RbjXMkx/oMvdv9e19J68rts7lAbVTvk4FhbEFNc6r1LY/3k6ep7yluc924nTnt6lLgvuvLivIaera0UYtr9o/lU/cf9/mb6OWTLdixuWd8gfNTHXOLdJ5VxKlPncZmnj/VCfzbShNE2iX1udjHce5zs16QQIAwDKMumVXdEJWS6EDwBIFJ6Xb+zr5Rwp+ND5XmrdE23Dfx0jL1t0WN+9HF122U2rBU6DTFMD4IkDrceDT5aKjK+U5BlsOtNRKOk2QqH10wDoNXdSUulJonU3dBFTG+QOCFuvZrLR/pXqtcdO0uJfqhOqDL/KirnURAIDDtj45aXHWQivdLi8FPaLgj6fzAQDAEI2+ZRez0y1xBbpq5dS1UUxqRdRtbfpvAgCAISLYRWfxP22w/D20AAAAQ0I3BnSitxrkD8MZ3RgAAMBQ0bKLTuoe1tI4Al0AADBUtOwCAABgtGjZBQAAwGgR7AIAAGC0CHYBAAAwWgS7AAAAGC2CXQAAAIwWwS4AAABGi2AXAAAAo0WwCwAAgNEi2AUAAMBoEewCAABgtAh2AQAAMFoEuwAAABgtgl0AAACMFsEuAAAARotgFwAAAKNFsNvi0qVLa+vr62ufPn2qxizWzZs30/a6JOVNnj17lv6+f/9++nsRvA0NsZwyn6dVyu/bt29TXrum/Lvp5f396CLfZp9lAQDDRrDbQCfRly9fps/Pnz9Pw1W36BO5giltQ8HDshzVQNwXRsu6EBsrleO5c+eqv77T9/706dPVXwCAVUaw2+DBgwfVp7W1x48fV58W6+HDh2t7e3v7kuXjX7x4UU3pxkHRhw8f0nARPn/+nIZfv35Nw2X48uXLvuFR4eP57du3NByLs2fPHqjrW1tbadrOzs6BaadOnUrTZrGxsbFvnfLx48eVabkHANQj2G3w6NGjNNSJVie+VW85VFCgE/kig10H61euXKnGLN7t27fTNjU8SnSxo/1WcBgRoPVz/vz5A9+J3d3dNHz9+nUaAgBWF8FuDQcM29vba7du3Uqfnzx5kobAUKneLusuxFiULsyOHTtWfQIArDqC3RoOGC5fvpxaRDc3N1M/vmX2RZ2G+68q5X0Oddtb42OfXff7jMspaXwXnt8XB16fy8nbVF40j+dXKvU11XxxHqemVnWvN84Tl/Nnpa7HT2UUl/P+temSf5dJTKX1x7KM++Fycx79t+a5c+dOugvheUv9s+O66uqItp2XncV9LNWTvOxKx3no3DVkHl0kAACHi2C3QMGFAgZ1X/DJ7u7du2n49OnTNBwiBehXr16t/vre57AU7JTE5URdONoCPAdK6kfZ1oVAeVEgFqmfZKTASPPNU75fehCpLfjSfvvBRFPeY8Ba0iX/Wne+36L11x2rd+/e7duPixcvVp9+Up3N97Wkax3R8c/X5+A17mNeTxT85mVXyu/Q+XuuLg4AgNVGsFtw7969NLx27VoaivpFKkhxP94hUhCipH6cDkjywKNOfEBHwas09VdUgKRtqJtH1/658eEiB3xuaXUgqfXl+dDnafsAx/WpdV7ev3+fhk3UZzPPx5s3b9KwpEv+FWQ74I/rj8eqdIGhZTyv1l/qTqPb7pou8VjmDzF2rSO60PM6lHy84jH0/sVuE76QiPu3arQP+p5rn5fZ9xwAsBgEuxmd6HzyVyugW7Nii1Zbi+dhUSDklmh3vZC2lkxxgC8+wdc9yObWOwVEXR8KywOHGzdupGGXtza0tag2ifm7fv16Gra9tUHLxIe+zpw5U32ajvPv19cpSIzr17HyA1Gl/rYOKiXPm3W93T5tHfHxinQ8HQSby1jfHX9PFvlA5CK4a0b8TgAAVhfBbia+bqxOKSA5KnRrW61eCpL05oV5cSCsVkxfXPg2+vHjx9PwMCjwcUDXFBB2yb9fy1ban1IAa4e5/134IlBUDg7cXRZdLraGQgG6L+TixRkAYHUR7GbcTcG3YPM0lteQTUutjGodVEDQtT9wVyrfXN4Kuix+COvkyZP7grkmbfnXuqTUmt31wblVoP31d0Xy1t+h0jFQgK78zvNCDgBwuAh2AwewPkmXuB/vUX4NmW6lLyLg9W1vBZe+uDiM1jW15ioPaqHs2k1D2vKvN3uIWnxjcKuWT/8PXqXuAn0oUOsanC+CLhLckquA0d+lVQjmfQxevXqVhgCAcSDYDfzGBb9Xt0StVn4NmU/qCvjUCniUWntjwJu/vmpafiBuaP8jWNf8tOVffWRVZhL7g7vlU/WqT3Bd4mPhdSstO9DU/njbvlPi99bqQkLjD7Pfu1vtY7nEi7aYf6V51W8AwOEg2K0oUFWLmAKOtod9/BCOH2Q5qhzwqtzy4GEavnUcA8HDKOM8H35QSYG9/q7TJf8qs1LLq8qx73//XKJ1OHi2Zf4HCaWH0bS/XR+gOwwKdHVsAQDjtL6ne63AIWsKOBS8Df2J/lXPPwAAY0XLLg6duoMoUFT/Tvd1dXLL8ZD7fK56/gEAGDOCXQxG6cGgpv/YYmhWPf8AAIwR3RgwCOrbWve/061CN4BVzz8AAGNFyy4GQQ93xf8pzNQ1YBUCxVXPPwAAY0XLLgAAAEaLll0AAACMFsEuAAAARotgFwAAAKNFsAsAAIDRItgFAADAaBHsAgAAYLQIdgEAADBaBLsAAAAYLYJdAAAAjBbBLgAAAEaLYBcAAACjRbALAACA0SLYBQAAwGgR7AIAAGC0CHYBAAAwWgS7mfX19WJ6+/ZtNcdinT59Om3v06dP1ZiDLl26lOa5f/9+NeagZ8+epXk0b/y7aZlV5v3TEPNx8+bNVKbLqvtApN9A1T+lNq6rXZJ/EyMvP8vvh/Pb9NsN4HAQ7HZ07ty5pQSK9+7dS8Pnz5+nYU4/pC9fvkyf79y5k4YlT548ScO7d++mIYDl0UWrEqanANRWoSwvXrxYfQIwNAS7Nfb29n6knZ2dNK4puJyXK1eupGHdtvIguNQS4YB4Y2Nj7ezZs9VYAMvy8ePHlDAd/YbpQl2/v/odU1k23WF4+PDhvt9sJcvHv3jxopoyPwrMOd7AcBHsdqAAVD+4soxbVFtbW2lYCmQfP36chg7A3YIbOSC+ceNGGi7KWLtE4PCtSt3S70Hpe+rA6jCtShmq/PLf1VOnTv24UB96i6ny/+jRo+ovAENEsNuTfoQX7dq1a2mYB7Jq2VDrwebm5o8AXC24+YnCAfHt27fTcBHU7+3z58/VX8D8qJXs9evX1V/D5ovgoVGg69+BIdNv2tWrV6u/yl69epWGx44dS8Mh0W+v8q8GiqHWBQAEu534FpVbXBdNLRqlQPbp06dp6H64brmNXRscEDflVS0Rflij1BfOD8k55S1XKg/lTa0ZnqetFUnzKEBW/ryMkvfPD915vlxbnup4/jx/cV1K+QWD/o7TS3kqicsoNd16zeX76BT3Nc+XUlPZx3JVaur7GOdtmi9XylNenqozGp+Xh8bFbWlfVK9Uv7wuLRt5XTHlXM+0PiXPF7flcZ4vyuupUs7rUrDjebx/+lwqw5gXp7q6p+Xz+fN5S1Rf1A1KvwNezvW3y7HyNrWeWA7x2JWOgVI8VnkZ5uWh7epZCNHvneeLlAdf4C+joaEv5VtJ3SgADNge9lGRlNLOzk41x3Jsb2+n7Wookx/89PfkhzX9LaVxkyA3jdvd3a3GfKf8e14NY5qcSKq5fi6fJ6/P+cqT81mntExTUj6sLU/i/YvHyfsax7nMSimurzS9bR9VjqXltM02peWcnP+6sleKx1Ca9lMpz1NpHqe8LuVKdUopqquXGuf662OYp1gXStOd4rr1uTRPU4r1pDQ9fs/qjrXzoM9xfqkrJ6WudVSpSd1+u350OVauZ6X6JnX7ruRjVXcslaw0TSnyuLzedFFaXx3Xz3gc2rgc/F1y2Xb5vgNYrm6/BEeIfyBLKT95LZJPeN5mPAFF+Y90XT7jycc/xvGkalpf/LHOt6tpPqHGIKSN5s8DMp8s4j7Fk7W15Um8fy6H0rqlNN7LOn8ul1iOmidfVy7fv64nUG+/lCeLxyqe+OP4uLz3Mz9GHh/3zfnM643HtwUa+X57G3G5unXF7WpfvD/5OsXryKd5vJK5HuXHzPPFfGgejYvrzbehPGoe5U809HKl46vxsTw9b17GHp+v2+Piup2HpuPhdWi+fFuS75f+ztdZypPyoeS8xfV4XFyHl4/jfJy0fq/X2/ffkfOh5abhPHThvJWOZYnzVjo+pX0BcLjoxlBjUjb70uTHLd1O63o7e1a6ZTf5AU7b1O1A97+7fPlyGlrs3+vb3U0Ppmk/fDtQw8nJJn32rUzdjou3C3/55Zfq03fzvJV4/fr16tNP6sLhPFlbnnK6larb4Cq/vN+yxmv9cbz6P2ucponLRWWv26oqG83T1gc6f8r7/Pnz1afp+Zi6q8rk5LrvDRvK6ySgSJ9dR5Rf72d+e1V5nJyUf9QrcZ/IDx8+pGFf+X5fuHCh+tRPW91S9wblPd+e9tF1xuVVR3UiVzqu+Tbyh6T6fg98bPIy1radp/xNK9pXv51F/L3++vVrGpa05avPsYq/FcpHzEuJu1m5Xmn5WFddF9Ufu0v5uczyOnzYtH9+W07swqLvlOi45V1vABwugt2OdFJyQJT3cVsUB7IKCvVDqu3nJ4nYv9d9efOAeFoK7N2n7jAeRiuVc1uedPJRUFQK9Lw+lZVPUE4OdD2PggIHISrfvhc56p/oB2++fPmShnUcROgE6vx42ePHj6eh99V/RzGgkG/fvqVhXUCRB26qW9rHeVDeHQg0BWV9+biU+sHKtAF2VAr2tV3tk5+2d9n21VTG87gomkbbsTpx4kT16SfVKf8Ouq56v06ePJmGXlesz07S56KqdHFy2BzUA1gdBLtTmPaE15cDWbcYlFpCxS0+dQFxXz4xaXtuNTxsXfOklk+1KOlknAeoLheVUd5y7xTLTsGyxonW19Za48BISS3tyktX3k4UW3HzQCJyS5r5qXUHiDm35Nqsga627/1WHVT5z5uPS12gNO+3N6iFWPujstGxmTXoit/j3Js3b6pPizePY6ULQX2HIpWPW8h9QaZ1+3sVU9dgV//BzmFdCDTx70Ke/D1SuQ6tNRo46gh2O9ITym79y1vSFsmBrH5I624jxpbcuoC4KweI+sGu215bMDVvXfIU6aRbF/C6VaopcFVAEJfTiUzyIDHnFlPN37eO+G0A2kefPOO++hirxTcGtzoGbul2XYmtb/l+ar+0DdUn51H51rhpb71q+w4K6y60HKzHVrHS9pqCWgVUymd+TLUefze71I82KlOVsy+K6rjls63lXnxs8pZpHXe3Gs/rjozUBdddjlUb1T+Vty7GXFdjcOd6pZbdtm4lzkOpAUHHch7HEwAIdmu49cPJt/tia51OXJoWg4958wnQJ8sSBzdNAfG0Si2JPkHphBfLaFm63B6PAW8MMHxSVoAR857vQ2nf6m6h1+kSBJlbJuvuGqjM3QqngMX50jEXHX+3rEndfjoojIF73bwOwvoqdS9xP+u4jbqLBwdqMS8KQJ3P/Ng4n4u8C1G6sHMLZrxdnwfipmNT2q/4uzJt8Fniuhq3VfqdmqZ70rt379KwqX77d1IXDTEPSrGMfBEU67Qv/Ny6Pu1F2Lyo3JSPvt9/AMNBsNuDTlTLbmlwINvW6qP+uk0BcVcOKHRi1g+8/2MLBRTxxz5vNXLQtQhd85RzwOsAQyctladaokr59QlaLVPxokZ0DPKHe3LOl7al5ABWAU1dEGTex3jSz0/y2p+83EX7mOfN+6l8R9rvUqteXZl0obKKQZwDQwU63oe8TJWvutvZpfHOr/JZ6lKg8X1b0+toW75Q8j6Zjo+DsVI9ycs10n75giVaxO+K6kN+PHVHpsuxauPAPQb5+fdQ+1Oqq+K6LlpXfjzzFvPShQYA9LE+OUnU36cDsHAKhN3imlNQ0bWPI7BoCvTdGl2iALcp4AeAw0DLLnCI1GqlQFetW7rujMmt0ovsJgP0odeB+e5ATO5Ckr8+DQCGgGAXGIBS/9V5v2EAmAddgOVdC9yPFwCGiG4MwCFTX8m6h8HoxoAh0UNj6t9bh24MAIaIll3gkOmBnfxBJ1HXBgJdDEndg2fu2kCgC2CIaNkFAADAaNGyCwAAgNEi2AUAAMBoEewCAABgtAh2AQAAMFoEuwAAABgtgl0AAACMFsEuAAAARotgFwAAAKNFsAsAAIDRItgFAADAaBHsAgAAYLQIdgEAADBaBLsAAAAYLYJdAAAAjBbBLgAAAEaLYLfB/fv319bX14tJ0xalabufPn2q5hoO5/fZs2fVmNVy+vTplP95uHnz5r7j1ZQuXbpULfWTl+9TllpPXO/bt2+rKQAAgGC3hoKGO3fuVH8dpGkKTJZtY2NjZYNKzJcufFRPX758WY357ty5c9QRAAAqBLsFCiBEgeXe3l4xbW9vp3kWSdsobfPu3btpiOF5+PDhvmOmZPn4Fy9eVFNms7Oz82OdriNXr15NQwAAjjqC3YxvLW9tba19+PAhfS65fft2CmyWSdtUAP7x48dBdmfA8u3u7q5duXKl+ut7Hdnc3Eyf6c4AAADB7j4KIH1LeNmBLNDXqVOn1s6ePVv99ZPGAwCA7wh2g/fv36ehWnWHSA+CqVVXrbsOaPKHk0otvvk8eX9OPxSVtwRqnB7eyuUPYTWJ8yn17eesPOXrKO1jPk/TdrrOl+/nIh9KnCeXz7Fjx9IQAICjjGA3+PLlSxqeP38+DQ+bHoKLwZYfmHvy5EkaKhjLH066ePFi9ek7Bav5POrPOW3gpvU9evSo+uu70oN8CqiV55yWLQXQJcqjHrbKPXjwoPrUbzsOnCPNpwuInC4QSvvZN1hfNt+diBdEAAAcZQS7K0YPIfnWtVvw1G/TDyhFbglWH05Pd2BXClDbeH3i9SmVHtbzA1Lx4Skl0Tragkbtm/MY16F9jfps5/r162molvs4rwLDSAG0A8Y4nygALrUsD4UvBO7du5eGAAAcdQS7wYkTJ9LwzZs3aXjY8rcxOOAyB29q/XRLbXyo7vXr12kYn/pXa5+D074PMHl9DnjruJuEthMfnhIvm7ea5tylJF+HAn33p+6zHQWoGqfAv60/to//q1ev0tAUUIvzNjQ6ntpfBel5eQAAcFQR7AZnzpxJw7ZAbCgU0LilU62gukUfWx0d+Gp8TG4x/fr1axp25fW13R53dxBfPERaNm9JLWlah/XZzrdv39Kwy619l6GWj+XmVmRvd2jc5SMP0gEAOMoIdgMFQn44za8gGzq1dKrF1/mOAZ77rOatw059W/+69rV18FkKCt3C2qZpHdZnO30e1nJArOVL5abXew2N66tan7sE9AAAHBUEuxnf4lafTbXmxZbSSN0GDjsgVvDp/CnfDnjdPeHChQtp2Baknjx5Mg2fPn2ahlLqU+v1te23g2i1ILurgTkYb3vjhVvZS+vw9vtsxy29arXP5835AcV44TBkqouqr9pXui8AAJDZQ5GKpi1tbm5Wc+/tTQKjNG53d7caM73t7e20Lg2beJt5+vjxYzVH/TxKzquG+TQvp2HUtL6dnZ1qrr30uTSPUr7OOi6HPMVy77Od0n7GFGkbpXmU4n524eW6mASstdtw/uN+te1T37wCADA2tOzWmJTNjwe5StSKNq//7nVapf/hTbfe421szVNqRdU4v9VBw0lQlD6LHuIqrVs0XtPbqIVRZZjTduvWnVN3gUkwV/31kx/Mkz7b0X526UIhOral4699H0rrqVrwS69mAwAAP60r4q0+AwAAAKNCyy4AAABGi2AXAAAAo0WwCwAAgNEi2AUAAMBoEewCAABgtAh2AQAAMFoEuwAAABgtgl0AAACMFsEuAAAARotgFwAAAKNFsAsAAIDRItgFAADAaBHsAgAAYLQIdgEAADBaBLsAAAAYLYJdAAAAjBbBLgAAAEaLYBcAAACjRbALAACA0SLYBQAAwGgR7GbW19cb06dPn6o5F+f+/fvFbTu9ffu2mhPTaCrfS5cupXl0nOPfWDzVa5X5zZs3qzFlp0+f3nfMmpKOdc7Ld/0uuy7ExHcQAFYHwW5PGxsb6WSH6T179iyVoYbA0D148KD69NO5c+eKgTQAYHgIdmvs7e0dSLu7u9XU7y3Ai7a9vV3Mx9mzZ6s5VtOXL1/2DQ9LqXxfvHhRTcVQffjwYd8x8/dyc3Nz33il27dvp2mz+vjx4491bm1tpXGPHz9OQwDAsBHs9qAgUyc7nVSl7XYrvncZyCkAmWcgguU4qi2ZDx8+XDt16lT11/e/dYdHATAAYPgIdqfg1r9Hjx4tpQ/vqlJwROvXOKjv8ufPn6u/AABYHQS7U9ItcHn//n0aLptaldWVQg/b5OqmebxTXUudAps4X2zB1jIal/e39UM/pul37txJrV9ejx/2qluHeF6nUuu598N9f5vmXYS8HJUi719evn4AKx/v/ejyMJzXEVPpgiufZ5Zy1N8vX75MF3eex/sQj2XMW/4Al+eLaVUvFFUeqtf+DQAADNwe9lGRdCmWnZ2dNN/khFeNmR+t0/kopcmJdt98m5ub6W8pjRP9HdfhtLW1Vc3xXWkepXyb2v9oY2MjjZfd3d19yzo5T6V1uDxLSeuOlOfSfEpadxtvv5ScR+1v/Nvy+WPSfpvHRT4G+f54vMu4Tl2+4zGcdznWbTOfXprPXDdKKdYB15u8TrbxcvmxquP8tJV3LpZXPNYAgGGjZXeFqc/r5AScWt3U2qTWNbWmTk7m+x600njNo/GTY/4jSeyK4Ra9fL5JEJHGd3Xs2LEf64/ranr46+rVq2k4CX5+zO91TIKSA62NEtet5eT169dpuAjOg8oj5lHHQPSEvk2CvzRU2YvKWMdAtD8erxZQjdc6Y7/QnJbXsZVYRpOgK42zeZfj5cuXf2xD++n58v7WbsX3OrwetehqfF6nXD7K7yq28OpYl8oSADA8BLtTevPmTRqeOHEiDRdBAUEMEJzyh2UUKClodaDz6tWrNDTnNR/vgMRdMTxdT7tHClKbArFcn3nFgZ/298qVK+mzKVAS7V/u3r171ae1H8vleW9SKt+mgFx5UNCWz+NjIN4XBYly9+7dNHz+/HkaOsh78uRJGj59+jQNPV8dH6O8jPTQpLYviyjHrsdS2/S8WofX4z7b+XHxhZq4bIZO5aw64mMYLxQBAMNFsDslBw1nzpxJw8MUgy8FsHmA4hOyArXYZ9LBsV8B5ha4ZfP2SxcO2pfDyFPOZVjqIy0XLlyoPn2nfCuYU5mq9dYt7gryFBirNVfjHUC3vU6uqYzsMMuxLl9Nder8+fPVp9XiYyjfvn1LQwDAcBHsTsEPEimYyQPLwxADMAWw+cNBzqMCj7wlU8m3pBWUuAVwmRwold67qyDzMPKUcxnWtRyXuk9cu3YtDd294caNG2noVlyPjy2rdZrKyIZYjk11ynccAABYJILdHhREqkXUfS99+/gwqd+gggm3IoqCqHh71S1obS17Fy9eTMO89VL9Lh1AO6DybXhxv8xc1+DZt7zV+ulb8eY8+5b3YXIZ529N0DFwnYjdB9Ra6xZA8UWFxsdjEZep4zsIpTJyfhZVjuqDLbFOdeUAv1SnfHfEXT6GSt/5SGXr493WIg8AOHwEuzXi7X4nt8QpcFCLaM7zTRMUlChoidt3UqAgDhgUUCnwVuujHybKgykHXaX1OTBy8K6ALk5XPsxBl072cXrcnjnAievKW53N/YfVMh3nF617CBcWzkPcdyUHbfnDYnL9+vU0zINMt+a6/2cbHVvPWyojW0Q5ulU73+8uFOBru3V1qtTt5jDpwkX583fMYt7d/cdlDQAYNoLdnnTS7vMQ1KLopOwgM/bZVUuTT8I6MTvw1jylwEpBcGxZVBAfWyNF23ALVgyoRdNKgb9om5oeuZUwpzyU1qMgcQjlbcpjqXVU40utfNovlcGtW7eqMd+5zPu0aipwbAqoZVHlmLfQ58e1ibZbqntaZ6x7Q1UKalcl7wCASTw0OTGWIxUAAABgxdGyCwAAgNEi2AUAAMBoEewCAABgtAh2AQAAMFoEuwAAABgtgl0AAACMFsEuAAAARotgFwAAAKNFsAsAAIDRItgFAADAaBHsAgAAYLQIdgEAADBaBLsAAAAYLYJdAAAAjBbBLgAAAEaLYBcAAACjRbALAACA0SLYBQAAwGgR7AIAAGC0CHYBAAAwWgS7mfX19dp06dKlaq7Fun//ftqehtPw8rOsY5GePXu20Lxp3doGMDSnT5/uVe/1m+Pvclu6efNmtdRPXv7t27fVmHbKY1zvEH9DAKAPgt0VppObTkafPn2qxnwPJO/cuVP9tbb2yy+/VJ+OBpXJ1tbW2pUrV6oxWCW+EDqMixVtd9EXtB8+fEjfzz7B5zKp3D9+/Fj99Z3yu6wLfQBYBILdGnt7ewfSixcvqqnD4CD327dvaShPnjxJw93d3ZTns2fPpr+PAgUQjx49Wnv48GE1Bqvmy5cv+4bL4u+SgtFF297eXrt+/Xr1VzP95sTfIAeiGxsb+8Yrzave7+zs/FinPsvLly/3XVQDwCoh2F1hPhHGgFYnJZ0Ij1KQawog1Krbl4LkRba09b0NrKBikS2bWvdQA5fbt2+nOq3hopT2/9SpU2m7ywh2L1++nILWw2i9bqM7IvGuiD77OxUvqgFglRDsYhR8+/XatWvVmG4U9Jw7d676a/4U6D5+/Lj6qxtdrCyKgvqrV69Wfx09Q9h/Bdabm5trd+/ercYAABaJYHeF+eETtwTqsyjoy/s9KujSOKfSwyySz6eHVeL40nKeN7aWuT+xU5c+fwpE4jLedhdv3rxJw7xFW3mK68zz4cBSAa/n8X7kD+rkLXHOr8vE87klV/Orv6OPh1JbOXifFZB5mbzV2eOd6o5lLgb22m8vH7XVk7Z99nT9HdcVj6XHeb7Iy8Sy9ryu4055ucTtKeVl3bT/riel45PXZS8TOW+aV+vwfHV1+MKFC6le5PswNNovdQ1ScH4U7xYBGIk97KMiqUtbW1vVXIu1vb2dtqdhk8kJKM03OWnu7ezs7MurksaJ8p1PU9LykdeXJ69nEiCkv7U9K+XV8+Vpd3c3TXde4zKl/Dt1ofm03Vy+LiVvty6f2r+6MvM+iD5rnObN1/XP//k/3/e3U17mUV355+VWSqV9z5WWU7Iu9aRpnzXN0/sk1y9xfYrj8vljcl2s267yaaXpSqL16HN+fPJ5Y/JxkaZjUzrmnj9+B7pwPrscb3GdinntIu5P3zwCwNDQsjsS6ls3OZ7p8+REmD5rnFqO1DIjGuekedS/1y1LasHR3zI5of6Yb3KiS+Pk3r17afj8+fM0FN+idx9Lta5peYnbmwQdaVwd31qenJQPLJO3/uViS2zk8S4PpclJPI2TV69e/dhG3K5uM0upHN69e5eGkcpXZaP5tIzWqdY9/S1x+00POeoBI29H+fQyblFzGcVpSqLtNrXwqiw07yT4SX/HfZOu9cRK+xxb/rQfcT0Wy9n76ocq28R1ej/ev3+fhhKnK0+iYyxt+1/i8tQynlfJdaau+4vX7Tz4exUdP348DT9//pyGQ6a7E3Ut1ACwCgh2a8STm9MqPuXv4ExBRuQAw9PdDUDzOdgTBbF+YMVDv9pMAbIDHXv9+nUa+kRvKru626AOpBSsxHlc3l5nHT84E/Mt7hupvOiWsgIe7YMD83z+SNuO05te4aZtuGy0TL5sV03LqKxFZeRtmcvawWpJW3661hMr7XOTWEes70NocX6/zcBvbVC9idOVJwXqNs3xUHlqHfkFivbVQbOPi2k/vS0NPZ8vvOzYsWNpmI8fCh1b/ea5PqiO5fsKAKuCYHfk3HIU+6QquVXK033S9Um4jlvj1NrqB2xu3bqVhuKn2fsEF1+/fk1DBdExj0oyyxPyClQcaClwaeszW6Jl8vKKpgmk+nJQd+LEiTSMtP0Y2E2jaz2xee7zvN+AoKBMeVeAll90deXvQ1Of23lYxtsfZqGLCH/nl/06OACYF4LdkTt58mQaxtvHMblFzsFL2+uF3HrmB69iS5Y4OOjTYuVbuvE2dEyzBgTaR61HdEu56XZ/5IBPrYh5i+eyOcgtBRwq62mDOutaT4bMD5KpNVp5nuUCwHW6ru613W3oiu4BALB4BLsj59vvaqFrCkDPnz+fhvl86mKQ95l1S4/kr/pyi1ceaKi1re42qLsuKICe5lZp3S1h5T225CoAEvfjFAd5bl02L6cgMu820IfKoU8gWhfUOg+lMnJZl7oK5OouarrWk6FSmajbgepmU7/orhd1ovLUscvvBiiodj/caetGXdebw6Z9jf2zVRfcbemo/W+MAMaDYLeGW/XyJDoBxL8XpXRbX6lry6QokIy38fN1OZDVSdv9C+N8vo0d+aSn+WMfW1HLr4OvuJ22d5v6wbH4yi2nPNjINbXCKSiJ65LYmubgMm63VL55MNyVtxXzkD/sFbmVOx57739dGYnKvEvrq4N7HVcvrzrQtZ6sktJFRt3+l7g88zrkvtGztPa7Pjk/h0EXCNqf/PsVy8bfZdWN/LsOAKuCYPcI0Ek7voXAdCKLD/WoRSy22pr+x6fo6dOnaVj3UnwFnaVWxqZWME2rawHtEsQp8M6X18k532/NF1v+tN18nxWAeJsO/PyglgKdPreetS0HDNbUL7qUZwfzyqtbpyOVddeuHjre+bFxwN+1ngyRL9biRYIv3vTZFxhN+1+i8i7VZY2fJfhzy/3QWktL3zXViS7fQQAYqvXJj3b9u3eAjFq1FfwozdqXdp7USqUWT7W20QKFoVNrqr4/Q/oOAcBY0bKLXh48eJCGfufuUKhlTwG4W52BodIFo7pGDO07BABjRcsuenE/viG2SLl1lyqNIVOfcAW8TQ/SAQDmh5ZddOYHeW7cuJGGQ+N+m6v4MBWOBgW56vdNH1gAWB5adtGJ++rK0KuMWp/1UI2CX2BI9HCjui9QNwFgeQh2AQAAMFp0YwAAAMBoEewCAABgtAh2AQAAMFoEuwAAABgtgl0AAACMFsEuAAAARotgFwAAAKNFsAsAAIDRItgFAADAaBHsAgAAYLQIdgEAADBaBLsAAAAYLYJdAAAAjBbBLgAAAEaLYBcAAACjRbCbWV9fr01v376t5lquUl6c5u3Tp09pvZcuXarGoI7LKtYLj1M6ffp0NRbRs2fPetVdla/LtEvSMYi8/Kx1Wsvfv3+/+gsAsCoIdgdMJ1adpJuUTu5Yjps3b65tb2+vnT17thqztraxsVF9Wlu7ePFi9Wk4HGhqeFiuXLmSym2VLqj0XXz58mX1FwBglRDs1tjb2zuQYlCzaDq53rlzJ33e2dkp5kcJh0PB4ocPH9Zu375djfk+Tra2ttKxefjwYfp7SL58+bJveFhUbgoeuwTd+t7l9V5lLKXvxqlTp9K0eVHLsL+LAIDVQ7A7QPHk+vHjx9QSVmcRJ3e0u3r16tqNGzeqv7578+ZNGl67di0ND1vplruCTNWZGKQfFgWsd+/erf4arnPnzlWfAACriGB3gJ4+fZqGutVLIDs8DiIvX76chkOkLhavX7+u/homXRToYu4wu1S0cVcLfRcBAKuJYHeAXr16lYbTBlOlB3rqAop83ufPn1dTDtIDV3FeLduFlxMFYfqcP7yV5yOfXvfgnPs1x/3L16Vt5jR/nKdP/1EFkeqbGy9EtI5Hjx6lz2oJ9Po01LTYr7q0L94PDWM51+XL8zvF8tI05UXdBDzdZVAqL/O8+TKR9ycvP603F/dDKeduQU+ePEnDodH+qwx3d3erMQCAVUSwWyOepJ26BnezUmtXHkx1pRN06barbrvnwYsClHzeur6J2n/lK9KydUF0iYMw0bqcH60jz4ema5t9KZDM16VtxnwqHyqPSEFNHmCXaP1d552Gyj+Ws7aVHzcFnPlx0jLaR6W+/Uu1TKmsVW51+5mXn7YZy1h5zOtLKXBXPdc+Do32RfufP4AIAFg9BLsjomA8BpN+YMctUzHoU9DmoCg+5JMHKOJgyw9exXX26XOpFlEvv7m5+eMBLgdOWqen+wGkUothk2/fvqWh1u91xVvQcb9jGWl+B4xNvP78QiTmWfvx4sWL9HkazpPL2C39ovw5OIz59z6eOXPmxzGMZdD0sJzLP3/YS7SuPNiWUvm6z7Lo4T1xHp2nnINpHZehUF5UJtrHIfRtBgDMhmC3hk/kMS2rhUetXQoO+gYA7uurICkGY8q3AhnxLeP379+noQKVpgfgRMGW8hQDJq1TwV2ffMblHQy6tTxvQfO8ffudah1uLXRrpQIW76P3W+URy8jbiwFbydevX9Pw5MmTaThvMTD3vsRA0fnLj7H3se/dAAf3pXrg7foCKooXOe5uE+uBH95T/rUN5at0AeD8+iJiCPzKONchJV8gaTjNHQcAwOEh2B0gn2yb+s+WONg4duxYGkZq8Yv86qkTJ06kYRMFPUo+8Ts5COoaqJQCMQePDiJiErcQ9qFl1ConWk9smfR+q+UubktBmfS9wFi2pmM8jaZ6oOPlculLwbcvsFzWTVwPDpsuvuLFBQBg9RHsDtCtW7fSUAFgn37CTa1kbtG0LkGuKeBRKrV2K8UW2b6OHz+ehmpZLK17mmBX1IoYWybdHcL7nd+yd5ql+8EyzLsl1OVReu+uAutZAj+1FKtMfeHR1M/Z9eCwqS7ndULJLe6upwCA1UGwO0AKaHxy1cNWpT6TphYzB8R+v6uWiS2Umu5+mdevX09Dt/RqfFtrplqaFfTUvRlgFg6UFdg39Zd1kKdby86vhr69bFqHy0vLOFhzd4i4330uJMxB2efPn9OwjfMdW+mbjmeb8+fPp2HpGDug9za7XCi460Kp/N2q677IfcSWXF1AKODVscjrmv+eV0s1AAA5gt0pxNcvLYpuAzvgVcuktldKkQJHByYKVDyP306gaQ5uYkAd53WAE7k/a+zDGFMewPSV3+6OKQbYbiF0fjUs5TeWl6c7AIz7rXLxfE5tgaiDsq777OA0dtOYtrVadPzyclDyMTZNU3Dp6Up1ea4rf9F6Yl/rPuK6/FCdj4O5LPLxy6QWZ+VxmosfAMDwEewOmALetlumCmhiNwIFJn6KP1JAkwctsV9lG+XDQVakwHHWQEUBnFtgczHPaiGMwa32M/9fzLQuB7OmID+uR/tdKiNpC+y0r8pD14A1z4/yEt+uMA2VQ76PEt/LXMpf3XFSHkv1THmdNjAvHc/SNjRfqV4BADAv65MTEB3QgB7UXUAttQrUDrNFctWpJVUt0rrgUsANAMAi0LIL9KSWYen7tgzsp1flqZWcQBcAsEi07AJTUOvu48ePZ+p/e5Sp/7ACXXUnmeVtHgAAtCHYBaakB5vu3btHy+QU/CBgWx9pAABmRbALTInWyenoLSb6H9hoFQcALAPBLgAAAEaLB9QAAAAwWgS7AAAAGC2CXQAAAIwWwS4AAABGi2AXAAAAo0WwCwAAgNEi2AUAAMBoEewCAABgtAh2AQAAMFoEuwAAABgtgl0AAACMFsEuAAAARotgFwAAAKNFsAsAAIDRItgFAADAaBHsNnj27Nna+vp6Mb19+7aaa/7u37+ftqEhpuMy1DHE/Ny8eXPf96ApXbp0qVrqJy8/y3H59OlTWoeGAAC0IditoZPp1atXq78OOnfuXDpxY7U5cFqlY+mLsKMayF+8eLH6BABAO4LdAgUS9vHjx7W9vb0DaWtrq5oDq+zbt29puEqthF++fNk3XKaHDx8e+C5YPv7FixfVlPnRRYm+kwAAdEWwm3EL3+bmZjphnzp1Kv2d00lfCavt7NmzxcBMwe8QWk5LXVlu376d8qzhUaLj8ejRo+ovAAC6IdgNFOD4ZLqIVimsjo2NjerT4VGg+/jx4+qvo03fTXUr0h2VIRwbAMDqINgN3r9/n4ar1kVBDwKp64XT6dOnqykHub9nTPnDdu7HmqdSv1Yt2zZPrrR+jYu0Ho3P81u3fs/v1JXzH9fr8lNw5fXFMsr3uVTecbyPT3xgKz9meQuu9vvOnTvplr3n8fJND995XqdSefUt2yFQgKvE3RQAQF8Eu4H7QJ4/fz4Nh85B48uXL6sx3zlAygNIBUulh+70sF3pdnlOrd5ar2n9WjbSPKUgLCo9YFTXWpfnV+vP86qgMr+9rUBxGiqjpj6h2rd8n13eJQogfXw0VN6V8mOm/LrcFEw3PRxZ4sA1p3Kpu/jpUrZD4CD/1atXaQgAQB8Euz3krXF1QcSyuCVOLdF+KEhJ/Y0lBpUKhhxgxXl3dnbSOAVbsfVSFIDGed3i7eDDD3e5f7PS9vZ2GtdE5RbX6/zm25eYB+f19evXaSgKzhycxnV2yUeJWg69rLbn9alvrzhA3N3d/THN5ZIHinm+tJ/uZxuX9369efMmDY8dO5bGS9z/pq41zlfMs9ehfJRabdvKdgh8YaD81fWfBwCgCcFugYOOIVOrqoIABVD5rV0FRQpkFOQ4gHzy5EkaOgCzK1eu/Ajunj59moZ1tB2t10GzAkD/7VZFBXNaZ5M8aLtw4UL16aB79+5Vn77nVT58+JCG4uAs369pNQVULkuVl4NfcfmXAsV4bLzfKqO4/JkzZ6pP3/UN6twirHzlZe9yyVu+pa1sD5vK2y30CuZ9kel9Ut0bctcLAMAwEOwGv/zySxqWAgNRsKJWsHkFVrNwq2pdYJR3FXAQU5rf+91F3pqt9bplVoFI3+BDyzig+fr1axr20bRf8+b8Kb8OvJwkDxQVjLVReXm+vNtJV+5+c+LEiTSMVC5d8jFEbRdfAAB0QbAbqLXNgZtv1Q+VbnVLXYCU9290kFqa/927d9Wndm7VjXQREFsQ2/p9qsXOQaKWm7bLgSyzK8nx48fTUPn17f+Y+rSKKt/a/5MnT8588eQgt/TeXR3vIVycTUOt4qVydvCu/crvagAAkCPYzfjk6Vvz07a2LZpa7BSYK595a6ofslJQ4Nvl169fT8O8lU+3wN2yeu3atTSs4wsA91HVst628uOgqq3fpx7wUj4UuMzaIusuEPO8OKkLHl2WKi93HZiGykxlpX67Te/KVRl1CVTdBaGULx/vVXvDCAAA80Kwm4lBmyhYcCukUx4wilsr59nSWLpdruQA04G5WlPjdLe+xtZdBUSxu4GTH2zK+6GKyiHO6/XG1rS4bZdL3wD28+fP1af+FCxqu744cXIAPw234MbydzDtB7liH9J8nr7cJSXnuhS34X7Dubp8icpnFVpAF/EdAgCAYLdAwZpaHZtur6tVrs9t60VwPh3EmoKbUqupuhs4KIraWhhN29F6TQF0XkZqQWwLrJSHGEi79VyBWt5K3UXsNzwPCvrzcnJZap/rWlu7BpSeTy3c2n8/KOaA3XS88gsrd1/JKV/x2JiOx2HXUwAADtP65AR58AyJI03Bp4IsJQIlAACwymjZBQAAwGgR7AIAAGC0CHYBAAAwWgS7AAAAGC0eUAMAAMBo0bILAACA0SLYBQAAwGgR7AIAAGC0CHYBAAAwWgS7AAAAGC2CXQAAAIwWwS4AAABGi2AXAAAAo0WwCwAAgNEi2AUAAMBoEewCAABgtAh2AQAAMFoEuwAAABgtgl0AAACMFsFuZn19PaUmz549S/PcvHmzGjNf9+/fT+vXEPN36dKlH8e5LZWOsZd/+/ZtNaabT58+peVOnz5djQEAAItGsAsAAIDRItjFkfPixYu1vb29H+njx49p/MbGxr7xSg8fPkzTAADAaiLYBQAAwGgR7AIAAGC0CHZXmB9kc9KDUzlP80N1TqWHq+oe3PKDcvqcP1zl9caH6brkS+I8McW86QGxOK300J7yFOcBAAAwgt0aMXjK09WrV6u5Do8Cwjt37lR/fffy5cvaN0TkeT537lx6O4ApYNTys+qSL7+VoI2C5EePHlV/fad1x3VpHve5tbrgGgAAHD0Euytse3v7x4NUDvhevXqVhrk47+bmZhr3/v37NFSAquW3trZ+zLO7u5umafzt27fT567a8vX8+fM03NnZ+TGflvEDYmfPnk0txgqS84fGRAGwA/UPHz6kobaj6d4eAACAEOzWiAFWnhSkHTYFhDEIPXXqVAoM68R5r1+/noZfvnxJwyYOTLvqm69Igaq7MLx58yYN8+DdZe9A/caNG2mobShA1vb0tgUAAAAh2B0B95tVsDhNy6YCVAWLajF1Vw11c5ATJ06k4TTq8nX58uU0VNcKb89dH44dO5aGbrlVvjyPkrtjOFBXYO0A2OsDAAAwgt0V5oe3njx5klqcu7aglqg7QL68uhZcuXKl+qu7tnyp9bUUlKvrhKaJh5ovtqo7xdZj5VHj3D2D/6EMAAAYwe6KUqupWmIVkM7jtr3Wp8BSAWcpoBQFrZonvi0hf/Cta74ePHiQht6WklqY7fz582nYFsDHllxtTwGv8hgfvgMAAEcXwe6c+HVbdW9DmIZu7WudearbRqm1tCv3kf369Wsally8eDEN1cXBeenSmlzKl/vi1gWlaq11S23cdycF1RbH+40SbhletkXUAwAAMD2C3RXlYDAGxDE4jK2vXfi/xY39aPNXeGkeb0PUV/bevXvVX991zZe6OIiCZc+Xv0NXLbVqIc5pfe5eUQqk1UoMAAAg65PAgMjgiFMrZP4+22jeVUR9autaoRXI8jYFAAAwL7TsIgW6CjIV1MbktxzELgOz8jt91WKbb0/v+VU3BPrbAgCAeSHYRVL639Pcj3cRXr9+XX36qe4/xAAAAJgW3RiQ+sr6Pbcl864i6gtcCq6FbgwAAGCeaNlFesWY/3vgyF0b5q3uwbN5vUYNAADAaNkFAADAaNGyCwAAgNEi2AUAAMBoEewCAABgtAh2AQAAMFoEuwAAABgtgl0AAACMFsEuAAAARotgFwAAAKNFsAsAAIDRItgFAADAaBHsAgAAYLQIdgEAADBaBLsAAAAYLYJdAAAAjBbBLgAAAEaLYDezvr6e0mG6f//+j3yU0tu3b6s5x+nmzZuD2k/lQ/lRvlbFs2fPUp5Vl9qcPn06zfvp06dqTDc+Tn2XW3Uu264p5+VnrU9ax9h/CwBgHgh2AXSi4OrSpUvVX8PiC5Iuwf0YDPU4AMAQEewO2Pb29tre3t6BdPbs2WoOYDncevvhw4c0HJqvX7+m4efPn9Nwka5cuXLgO7m5uZmm7e7uHpg2bwroX758Wf0FAGhDsHuEHJVWL8zfqVOnUuA21GDXAejDhw+rMeOkFuw7d+5UfwEAuiDYPSIU6D5+/Lj6C8AqOnfuXGpFdksyAKAdwe6K8sNBergol0/TAzFqDfr48WMaX+p76YeUnPIHXxQsa7zW5f6RcT5P1zCuq9S30NOc8m315f11Km2z9FBR3Xbzed+9e1dN2U+39uN8Sl3ly9WVd5fyFM/v9OXLl2rKfHhf67Yft50/eOX64vGeT3k2j3PKy8PHRMvEctf4fHrkbTuVvi952XmdQ+O8v3jxIg0BAN0Q7A6YAtR4EnbSyV63a9WnVwFsDEB04n706FFq+dEtZ53sr169Wk0t0zq1nkgtSKWTvoIoTbP4WRxUm/oWxuCnFCxpHe4T2pcCAO1vpG3GYEnbLJWBtpsHR8prPm/ptrHWv7GxUf31k49Pkz5l0FaeovXleSzleVHyctDxyPNoMdhUHlWOfetE3J6OVd18qr95/fQFn2mevKya1nlYVJ7Ku/oEAwD6IdhdYbdv317b2tr6EQD5xK1gwK0/x44d+/GQjMb7oRlPd1Ci9XiaT6h3795Nw0jr10lX8+3s7KSUy9fz6tWrNDRPV9J25f3792nYhwJVB4KldYrKxA/zxHmcbwdcoqED5/igUSnAuH79ehpqPZ5PFx/y4MGDNGziZZTaysDzlcoz7p+Pi1LpuCxKrDs+HirHeMEhGnfv3r0f82k5P2zp5ZWaykPHy8dGQ5W5+hOX+KIlHkuv2xc5bgGPD4MOrYuAjrHKTnnk4VQA6I9gd8DiCTimeHJXC69OzjoZ+uQeg6G6QMA0r4Lg+GCPTqgKChSQ5C1cMbjQQ0FKkaab1qN1OwCS/Bbs+fPnq0/9vX79Og3j+kX74qDgyZMnaZjPo3w7r0+fPk1Dd1dQoNgUVKhMHKzF/dfFh/Y3D+5zfcqgrTzfvHmThgro2o71oty6dav69L2+OdDOu3+onrq8NJ/rXJ/yiAGyhirzEgfaKr94LL1N153Lly+noYJotzArP4dVljnVNX+vlUff3fEFjlquSy3jAICfCHZHIAYLCjT6nKgVOCn5JOrkFs5v376loZ04caL6NDvd0vaJfJo+pn4zQNP+Ns3zyy+/VJ++82urjh8/noZ1XCYqo7zcXJ5dzVoGvhhRC/5Q1JVfl3rZVh4nT56sPjXzq8higOgksV7oAlIUQGq6WlKH4vnz59UnAMC0CHZHIPaDVKCQ3z5uopZCpbz12KmphXMaCs4cdKjVdZbb7d7vvPU5aponb3nsGkg5sFQrY6nMlJrMswz6XNgsiwPNruZZHuaAWy27peOTv0JN47zdvt+hRVLLdZ53JXe1UIt+3jIOANiPYHfF+cEVdzuQ0sM9+e1vu3jxYhq/rFuh2p7ohD1rIH3hwoU01L5Faplz65z71pbmUaufXLt2LQ3d0ps/1JRTgKn1qWU3f8Cti3mWgW/5e52HTUGiW2bdRaDNPMvDvB4d46aWWvd1F3WxcMBb9wYOAMDqIdhtoZO3Wpxi6+mylG7BKjnA0lABl1p51BdRQZhaeiQP7pz/uB7tm/sw+hZunppaTedhmlv35j6yEvPsYEsUwLgVrDRP7NOpoS4aJM5bCn7dF7h0jPrWlVnKwPunC5aYh1gGXaks4zqc2lo543IuK5XrtK3Os5RHFFtq4/4oxYu7ON3lNs/uOn05L4v+7gHAUUGwu6LUIqVAS4FGvI2pgM0n+XjC1Dx5AOzb8fG2aDRLwFLHQaJP6H5QSPsyTeuybkc7QI3ig2Pa99KtcV0Y5A84KfjXfrdROavcSryPdeZdBtq/UhksmlvEc6VybTLv8jDVgdLdDPFFnoZ53VddifUHALDa1icn7Pn/5+0AAADAANCyCwAAgNEi2AUAAMBoEewCAABgtAh2AQAAMFoEuwAAABgtgl0AAACMFsEuAAAARotgFwAAAKNFsAsAAIDRItgFAADAaBHsAgAAYLQIdgEAADBaBLsAAAAYLYJdAAAAjBbBLgAAAEaLYBcAAACjRbALAACA0SLYBQAAwGgR7AIAAGC0CHYBAAAwWoMKdi9durS2vr7+I719+7aa0t+nT5/2rSsmTQMAAMD4DSLYdWD68uXLasx3586dW3v27Fn11/xsbGwsZL0AAAAYlkG17O7s7Kzt7e2ltL29ncZdvXo1DaelwNbrjOu9e/duGgIAAGC81icB4F71+dCoZffbt29rZ8+ercZ8p24Nau3d3d09MK2N1qlAV+nDhw/V2O/UiiwD2HUAAAAs0CBadk+dOlUMZjV+URQEAwAAYNwG/TYGP0h27NixNJwHtRbLjRs30tD8cFx8eM19ib2M3bx5M43Pk8aLHqwrjQcAAMByDTbYVaCpLgxqgZ2lhffjx4/7Ak93i7h9+3Y1Rz8KfB89elT9dZDyrQfrIs3PA3EAAADLN9hg98GDB2l47969NJwnBaN5a20XDsA3Nzd/PPCmYFoUQD98+DD1PZY4jx+KAwAAwHINMthVNwC1hqpV98qVK9XY6WgdDjqdtra2UtA6z+4FT58+TUP1PdY2tX61JItakWfdDwAAAPQ3yGDX3QBevXqVhvOmFlgFpE3dEUrUnUIttg5klbQeOXnyZBqK3v6g+UTz0GcXAADgcAwu2HX3Ar1zd5FvY7D4QFoXL168+BHImlqK8z7Ams9dHBRU379/P30GAADA8gwq2FVAqFZTBY+LvO2vllYFomqVdUDt4fPnz9NQSi2y6mKhPMb/AEMtxaYH0byc1umA9/Xr12kIAACA5RlMsKsg8s6dO+mzWkLdTcDJbzNQIKm/u7aU5m9jUHL3hSdPnqShnD9/Pg2VB8+X/2cU8u7duzT88uVLGpbE/LubwzJaqQEAALDfIIJdBbr567oWTS2y8T+yUEtyfGuCWpdLfYbVXUEBbAyKT58+XU09uB7RumLrLwAAAJZjEP9d8KpQa7Jbn0vUikwLLgAAwHAM8m0MQ/X48ePUquu+uk56x67E/r4AAAA4fAS7Pan1Nn+Dg/vxAgAAYFjoxtCDHpK7evVq9ddBdGMAAAAYFoLdntSq6zcsmP4uvbkBAAAAh4tgFwAAAKNFn10AAACMFsEuAAAARotgFwAAAKNFsAsAAIDRItgFAADAaBHsAgAAYLQIdgEAADBaBLsAAAAYLYJdAAAAjBbBLgAAAEaLYBcAAACjRbALAACA0SLYBQAAwGgR7AIAAGC0CHYBAAAwWgS7LS5durS2vr6+9unTp2rMYt28eTNtr0tS3o4CHwOlt2/fVmOxSKdPn07ljcOlY6BjMQR5Xp49e5bG3b9/vxqzfNP+XjrvTlpPX/6OLOvcAGB6BLsN9CP28uXL9Pn58+dpiOXSScjHQM6ePVt9AhbPwRQBTTe+MB0y5fHq1avVX989evRoXzAMYFwIdhs8ePCg+rS29vjx4+rTYj18+HBtb29vX7J8/IsXL6op46WTkHifgWVykPvt27c0RLMPHz6k4bIuDqb9vdzc3Pwx/uPHj2mcLqrV4gtgfAh2GzjQ2traSj+I/BAul7ssqPyBRSvdjleApICIOwrdKNhVeZ06daoaMzzXr1/fF/gqrzs7O+nzmzdv0hDAuBDs1vCJb3t7e+3WrVvp85MnT9IQwLgMpV8sFu/KlSvVp5+OHz9efQIwRgS7Ndxt4fLly+nKX7e9dJtraA9IKSive8BC493fMH8gw6mutdrrdSqtPz44ptTn1mW+bB5saHvnzp1Ln9XC3mX9mh7XqZTzdjVv3EdzH00d51hm+bbb8i9ah6a57DxvbEH09py61K/82JT6Gnpaftzr1h/nKR3rNnF5pVheHhf32+qm+eGfLss6tR0jp5zm052bO3fu/JjH34tYXyIf25hK36U4Lc7b5TjnmpZvqxPKv8arXPN5830Tz+9UKv8SHzfzfqtOxePR9H0ppUX7+vVrGp48eTINAYzMHg7Y3d1Vx6+9ra2takx53LJou02HamNjI02fnLCrMXt729vbaZyGsrOz82M9eZoE8mke0z62zVeaR/loozzmy8XkfSitP+5fzsenlOJy2geNc/k4ed+83Xy6961r/iXWGR8jJ03Lt+HUpG4/tY2oNI9TKY91qU1TeWjd5v1XPbTSuKb1Wddt+liXkrdZqmdxutcRy6xuGaVpj0MdzZfXHScv36VONJWZUtT0W+HvgXg+/8aI82pN64q/J03zKfUxzTI+zrH+tPG+djmOAA5Xv1+EI6Luhy//IV8WbbNpu31OOvnJ2PN52XjijDyfy6RURpqnjZfL8+HxcR3OSz5vifOn/TQHk3H50nY03ScsfdZ0JdN68v3uk38l50vb8bLeVsxzWxlqnfE4O4jJl/N247zOY749jcv3x+PbeJ1xO65rmhZpnJL2obSceHy+bNy/rtv0fD52Eo+Jyk7Jy+Z5Ea/D9SNf3uL4WL4e13Yc6nRZXtuO00t1wuPicuLjHMvI8+XloXFxnaVyy+uN51FyecW8WF7OonF5vewiX3cbHzttrw/va8wzgGHq/otwRMQf4rqUnwQWzdttEufxCSaeKErjxPvrH3rtm/6OJz/xCcH7Hk9iXcsj31YuP/F6m20nPK+3NJ/WGU/QPqnm+2dah6Zr/3LT5r9ufk9XatvHJvk+itcb+Zj5eDXtj/elTd3yLufI23MqLafx+b7k6pbNt+m/82PtOu5jnJdL5HUo7+L6Uao/Xk/Mm/5Wipq2l9N8eXl0WT6vEy77fF15WbhOlupjvnwpH5quceZ58vXl5Zr/LR7Xl5bps5zzXDqmTbxczDOAYaLPbia+bqzOsl5D1sfkhJOG6lt39+7d9NkP1jXJn5r+/PlzGqq/bOwz5/6znq6HPCYnh/TZfR1Lff8iv76p7kntixcvVp/68XrdtzemyYnox6uFomPHjlWfykoPrEyb/7r59YS/8+a89+nL6f6QdfvYpm1/2vh4qy97LHMlvxs51gltZxL8VH99f9NB5HlL/Tmt7zZLTpw4UX3qz+su1Z8zZ85Unw7PrHXisPqu6g0JMgkg9x1P/b1I6kusctLvJ2/cAMaLYDeTv9c1T1sDfQ3Z7du301CBp/KnfHYJYvLgyic5BbKl/dd7LU0nB43TtqTtxOQAoS4YefXqVfWpH69X+cjz6zQPi8i/jpHy54sVXVS0BWt+qE1vB9Gy0wYEbQF/G9evzfDO0jzFOqi6Fl/mnwe1ntfvai3pu82SWV4v5XWX3rv7/v376tPyzatOHNZbCXTxHC+ErKkuzEq/4fq9V13y7yeAcSLYDRzAOngruXbtWhoO8TVkDpjE+WzjFlu3rPzyyy9p2BZ0KVDxdAXALrOmlkkFCjqxqMUmf+LfT8TrJN23hUXr1XI6cXV9anwa886/lnF56WTr49cUNPkErXln/U9FYrlNe/FWVx4lrmu6kFL+VV75WwO0vtJ4rd/1rc82cy4/8SuoHOD5rkUTf6/y70cM5P1dWpZ51gnXXV00N32XF0F3pHRs44XLoujY+XjNWmYAho9gN+hy+18nA59sfbLTiVmtKtMGDPPiQFX5qwu4dFL0bUIl0fw+8Wu52FIb51WKwWSc7gCirbXQLcN5PlSeMm3rri8+4uujnJpui/c17/wraPI6lHfp27qm4HBaLjed+OP+dF1nXXk4mY+BWu9UxxTcq57lQavXp/FxPa5f0nWbFsvYAU5sRXSdjeurqzN13w8H8ppWeo/rss1SJ1w2sdyUFkm/pcrzIltyo9jlKO6jki+0FOzr73n+fgA4HAS7FQWq+rFV4OdblXXccjNNy9IiPX36NA0dtHdRag1SMFG6paiTu2/3lU5KKr+2stN0tdionCOtW+Pblq+jIKSuJWierfDzzL/KXctFavWsu1ARBVLadgzqnRd97tsap23NEhi5PPL9ENch5UvbUF2LgaDqmfKuINMBRt36NJ/Ltss2mygvMR9an/ufW1OAo3zn84u27UB8meZdJ7S+0v4tko6BW/u9D9PkvQsd21nqPIDVsz45aSzuXhGWRi0jOvkrlQJRBfNq1VLL02GckIFlUwCtFuK2CwgcLv921VEQTJ9aALOgZXck/BaJe/fupSEArILnz5+noS5K1PYSk4LgIb79BsBqIdgdCd0K1okh3p4FgFXx7t276tN37scLALMi2B0BPzR248aNNASAVeEuCvnDpe7awO8agFkR7K44tX74KX76tQFYReqy4IfqInVt4HcNwKx4QA0AAACjRcsuAAAARotgFwAAAKNFsAsAAIDRItgFAADAaBHsAgAAYLQIdgEAADBaBLsAAAAYLYJdAAAAjBbBLgAAAEaLYBcAAACjRbALAACA0SLYBQAAwGgR7AIAAGC0CHYBAAAwWgS7AAAAGC2C3cz6+noxvX37tppjsW7evFncfildunSpWmrctJ/e52Udh6Pu9OnTqbxxuHQMdCyGIM/Ls2fP0rj79+9XY5Zv2t9L591J6+kq36bWBWDYCHY7Onfu3KH+qB9VOrG8fPmy+mtt7ezZs9UnYPEc2Hz69Kkagya+MB0y5fHq1avVX989evSoU+OB9k3zRloX5wZg2Ah2a+zt7f1IOzs7adydO3fScJEePny4b9tKlo9/8eJFNWW8fGLxPgPL5CD327dvaYhmHz58SMNlXRxM+3u5ubn5Y/zHjx/TOF1Ud2ml3d7e/rFsPDdwQQQMF8FuB1euXFnb2NhIn/lBWx53Wdja2kpDYJFKrXMKkBTUcEehGwW7Kq9Tp05VY4bn+vXr+wJf5dVB65s3b9Kwjua7fft29df3c4N/n96/f5+GAIaHYLenIf+IA5jOUPrFYvEUoOaOHz9efWpWWvbkyZPVJwBDRbDbgfrt6VbXEFsY1RqlfmSlByw03v0N8wcynOpu23m9TqX1xwfHlPq0eufL5sGGtqd+0qKuDF3Wr+lxnUo5b1fzxn0099FUq3Iss3zbbfkXrUPTXHaeN7YgentOXR7Ay49Nqa+hp+XHvW79cZ7SsW4Tl1eK5eVxcb+tbprK09PalnVqO0ZOOc2n77duRXsefy9ifYl8bGMqfZfitDhvl+Oca1q+rU4o/xqvcs3nzfdNPL9TqfxLfNzM+606FY9H0/ellBbt69evaThN4Pr58+c07BowAzgEe9hHRVJKOzs71RzL5zzU2djYSNMnJ+xqzN7e9vZ2GqehKP9eT542NzfTPDYJ6lvnK82jfLRRHvPlYvI+lNYf9y+3u7t7YH6nuJz2QeNcPk7eN283n+5965p/cZ60Th8jJ03Lt+HUpG4/tY2oNI9TKY91qU1TeWjd5v2P36PSuKb1Wddt+liXkrdZqmdxutcRy6xuGaVpj0MdzZfXHScv36VONJWZUtT0W+HvgXg+/8aI82pN64q/J03zKfUxzTI+zrH+dDXN9gAsF9/QjH+4Sin+0C+Tt1+nz0knPxl7Pi8bT5yR5/PJoHRy6FI+Xi7Ph8fHdTgv+bwlzp/20xxMxuVL29F0Bw76rOlKpvXk+90n/0rOl7bjZb2tmOe2MtQ643F2EJMv5+3GeZ3HfHsal++Px7fxOuN2XNc0LdI4Je1DaTnx+HzZuH9dt+n5fOwkHhOVnZKXzfMiXofrR768xfGxfD2u7TjU6bK8th2nl+qEx8XlxMc5lpHny8tD4+I6S+WW1xvPo+TyinmxvJxF4/J62UW+7jY+dtpeX9p3LZuXFYBh6f6LcETU/VD6R22aH8RZ1eUpivP4BBNPFKVx4hOP98v7GU9+4hOCf9TjSazrD32+rVx+4vU22054Xm9pPq0znqC17biNnNah6dq/3LT5r5vf05Xa9rFJvo/i9UY+Zj5eTfvjfWlTt7zLOfL2nErLaXy+L7m6ZfNt+u/8WLuO+xjn5RJ5Hcq7uH6U6o/XE/Omv5Wipu3lNF9eHl2Wz+uEyz5fV14WrpOl+pgvX8qHpmuceZ58fXm55n+Lx/WlZfos5zyXjmmTWJ8BDBt9djvSE7iTH9/0eppSH7fDNjnhpKH61t29ezd9vnXrVho2yR+4c/8z9ZeNfebcf9bT9aDG5OSQPruvY1u5+PVNdQ/5Xbx4sfrUj9frvr0xTU5IP14tFB07dqz6VFbqfzdt/uvm1xP+zpvz3qcvp/tD1u1jm7b9aePjre9ELHMlvxs51gltZxL8VH99f9NB5HlL/Tmt7zZLTpw4UX3qz+su1Z8zZ85Unw7PrHVilr6rs9AbEmQSeO47nvp7kdSXWOWk38++b9zw992/gwCGi2B3CkN856Zfh6PAUz/eW1tbnYKYPLjySU4/4JOLoQNJ77U0nRw0TtuSthOTA4S6YOTVq1fVp368XuUjz6/TPCwi/zpGyp8vVnRR0Ras+aG2J0+epGWnDQjaAv42rl+6CIxlHVOsg6pr8WX+eVDref2u1pK+2yxpe71UE6+79BtwmK+emledOKyHrHTxHC+ErKkuzEoXBrrIVF2KrxPrYpYgGcDyEex2pBZTtxwN9cfNAZNcu3at+tTMLbZuWfnll1/SsC3oUqDi6QqAHfA2tUwqUHDruE4WkZ+I10m6b/lqvVpOJ66uT41PY9751zIuL51sffyagiafoDXvrP+pSCw3rXcadeVR4rqmCynlX+WVvzVA6yuN1/pd3/psM+fyE79GygGe71o08fcq/37EQN7fpWWZZ51w3dVFc9N3eRF0R0rHNl64LIqOnY9X3zKbJUgGcDgIdmv4VpqTfvwltj74NTvLPinUcaCqH+G6gEs/0nG/RPP7xK/lYkttnFcpBpNxugOIttZCtwzn+fCFxLStu2rRkvj6KKem2+J9zTv/Cpq8Dtexvq1rCg6n5XLTiT/uT9d11pWHk/kY6PujOqYgQfUsD1q9Po2P63H9kq7btFjGDnDi99h1Nq6vrs7UfT8cyGta6V2syzZLnXDZxHJTWiQFn8rzIltyo9jlKO6jki+09Luuv2NdiEFyXkeVFnmxDWB6BLs96Md4CCeyOk+fPk1D99ntotQapGCidEtRJ3e3ZJROSiof3+ato+lqsVGAHWndGt+2fB0FIXUtQQ7o5mGe+Ve5a7lIrZ51Fyqi+qdtx6DeedHnvhde2tYsgZHLI98PcR1SvrQN1bX4/VE9U94VZDrAqFuf5nPZdtlmk/x7rPXl/S6bLpCU71I/TW3bgfgyzbtOaH2l/VskHQO39nsfpsl7Fzq209R5BbqlOgdg+NYnJ43F3SvC0viHWKkUiOrWm1ok1PJ0GCdkYNkUQKv1re0CAoerLYhUEEx3AQCzoGV3JB48eJCG9+7dS0MAWAXPnz9PQ12UqO0lJgXBjx8/TtMBYFoEuyOhW8E6McTbswCwKt69e1d9+s79eAFgVgS7I+CHIm7cuJGGALAq3EUhf7jUXRv4XQMwK4LdFafWDz/FT782AKtIXRb8UF2krg38rgGYFQ+oAQAAYLRo2QUAAMBoEewCAABgtAh2AQAAMFoEuwAAABgtgl0AAACMFsEuAAAARotgFwAAAKNFsAsAAIDRItgFAADAaBHsAgAAYLQIdgEAADBaBLsAAAAYLYJdAAAAjBbBLgAAAEaLYBcAAACjRbDb4P79+2vr6+vFpGmL0rRdpZs3b1ZzTk/r0Lo+ffpUjcEyPHv2LJV7l/pz+vTpA8fo0qVLP+pBKWn9dbztutS0bBvXpy5J+2B5nvrUbZeP0yK/kwCA1UWwW0Mnzzt37lR/HaRp8wg6p/Ho0SNO7ii6evVqqhtv376txgyXgl7lN1LdjsFwHQXJHz9+rP76Tt/JLssCAI4Wgt0CBQuysbGxtre3V0zb29tpnkXSNkrb3tzcTNN1cifgPZp2d3eLdcPOnTtXG/BubW0Vl71y5Uo1R38PHz48sD7Lx7948aKaspbqssc7eH358mWnVuadnZ0fy+qzaFnuVgAAIoLdjFuGFBB8+PAhfS65fft2OsEfBgULCnZEAS8nd5gCP1+IXb9+PQ2HSvmLge+pU6d+BK1v3rxJwzoKzGNwrs/6zsq3b9/SEAAAIdgNFDSqZUgOK5Dt6uzZsz+CmgcPHqQhILoQU4upWkpn6Ye7aKWW5OPHj1efAACYD4Ld4P3792noFqKhU1Ajr169SsNILdTqjuHUFPTE+fJ+yH6AKO8u4fXHVmV9juuKyfN5fXnSw0ZRPj1vvY7bV948n+V56dqXM3/oKS8351/lFMs4z7/FvCl9+fKlmrJYd+/eTcO2FtI6ef3Jy39Rvn79moYnT55Mw650XNTfV0G+LgQBADCC3cCByPnz59NwFahfcf6gjgIvt1CbHgQq9e/V8pEChmkevFP/0HxdOW0/fyAp5yA1p3WX+qA+f/5834OEDmrzvKg8Svsfab/zslR+S9tVOcUy1nJ5QK2/Y94k/3tRjh07loalINUPOObJ+6lyyOvPxYsXq0+L9eTJkzT85Zdf0rCNLz50nHSnI3aLAABACHZHRgGdAq/Sgz+lQCs+rOT5FAzVPdxU5+nTp2kYH5zSup0P9cd8/PhxmsfTlRSUKkhx/2gH2vHhPPfjvHfvXhpGWqfn0/bU/cQBntadr6ONysDLuJvIu3fv0jDneV1uMUBUEOa/4zq75uMwufzisVwG1TmV2bSts6rfdS3sAICji2A3OHHiRBpOe+t32RSUKJCKrZivX79Ow/zBHwdueRB769at6tP+B4TqAry+FLyUWhcjB8HiYMddNER9OzUuBpPmlkBRoKt9UNL8Khu1+mn7WkdcZ4mXt6bWRQXWntfbE++r65ACxrjOZXGXnNK24wVOTA4w/WCb3ujg1vCmhzXnxdt1F4wudFyVdz+wqWOedz0BABxtBLvBmTNn0lAtm6tAt/Al3mJ2UBJvTyu5Vdd9IutM+4DQtWvX0lABkrfpcnTAdePGjTSM+VJw4tY4B4oKauM8Sg5088DZt+tzCvYV1IkuBvIuBm00v/ZFPn/+nIZ9OJ91+Vs0XwRM0yVHAWR824fKPy/3eXMXEl2UTdOqGx/YXFa/aADAaiDYDRSUOUDqGxwtm1poHcDG1lkHjnmrnVPpCfioLRiuo2DDAVKkAMbUsuqAxBSIuhXaQbFaSUt5V+rTSqqWWi0jCpa79EV2cK1WxtL+dNUnn/Om1ljtr8q27XjX0fFU2cULhkWJD5e1tb4DANAXwW7Grxxz62Jdi5YCisMKiGOro4LHGFhduHAhDafpu6gA2g+QXb58OQ3d0hu7GsT+qJH61CooagpOFaDH2+j57XF3V+gSmNbRfsRjo+1I6a0VkZdRgD5tkGhuUV3Wg12mOuuLoNjFow/VHdd7fR8c8OZdYOZB23Gd6/NwmY5VzI/W4/3u+nAbAOBoINgtcHAkCt7c2heTT6ymAEHj5xkQaBv5dpUcaKp/bd4Spr+VZwVspWXz/MX9KwXQvqUc16fgpNTSp3zFltyct910S9wXG3VvDOjKFytxub4XANO2couC5dhv2MmB3axid5GYTNut6w5QV7bxAiPWC3dHWUSXjHgxEPOi5IsPv3EhXsBILAPXRwXmdfsNADiaCHZrKODNb7lHOqke1muO3DJa1/qo1lK3xkUxEHAf25xu3ecBdB7AatulwNEPtzkAUYoPC2nbykMeiMbgV0G21l8Kpru+yUDbyedV4Nl2vBxoO9Bzy6iCvWlaymO/4WXRfqv8ZulGUXoYTXVglnWWqEybLo6a+FhF2vfSeADA0bY+OTEu571CGDUFh3UU8Cm4dstxiQKVWbsOAAAA5GjZxczceutWxZjUoqqWUb+HVy15+Twybf9SAACAJgS7mJvS+4ndv9j8/ldbxENPAAAARjcGzEVT/0t1Y9Dr0Ur9cI1uDAAAYBFo2cVc1D0U54eGmh48U5BMoAsAABaBll0AAACMFi27AAAAGC2CXQAAAIwWwS4AAABGi2AXAAAAo0WwCwAAgNEi2AUAAMBoEewCAABgtAh2AQAAMFoEuwAAABgtgl0AAACMFsEuAAAARotgFwAAAKNFsAsAAIDRItgFAADAaBHsAgAAYLQGFeyePn16bX19/Ue6f/9+NaW/T58+7VtXKQ3Js2fPUp5m2eehevv27Wj37TD4ewIAANoNJthVsPfx48fqr+/u3LmzdunSpeqv+VPAoMDhKCHwBAAAR8mgWnZ3dnbW9vb2UtJnefnyZWqlndbGxsaPdcbk9SvAPkoB79evX9Pw8+fPaQgAADBmgwl2r1y5kpLp89bWVvr87du3NJwnrV9Br4JhBbxHpaXT+/3w4cNqzOpqOma0XAMAADnyD6i9evUqDdVlAqtDwezjx4+rv/a7efPm2uvXr6u/AADAUTbYYFd9eB89erS2ubm5dvbs2Wrs/J06depHC7L6s0Z+aMwp9h9239dSFwg/QBTXpwAsrqtPy6PX51Tqx5yv3ynvAlJ6EM7rz/dXf+fqtqPxXeTLlzSVu2i6Lk7UIp/Po/1SvVH3F0/L85aXZ37cnUeNj3np0p3G9SKm0nL5PE3l13W+vGxp3QYAYGJvYHZ2dvaULaXt7e1qbH+TQCitY2NjoxpTT9vRvNq2eVye4vomQXIat7u7W43ZS581TtNsErDvW4dTnMf7HffZ66pLkfNSSnGdpe1on/JlnOK+1e2HUtyXXJ/9aCv3unUpb7HuxBTzVpquFI+9yzLPS1tdqst76TiXUr7+PuXWpY4BAHAUDbobg1rvSi2ni6aWOHdrUOvhpJxSUiuz/naL57Vr19Lw3r17aSj+7GmaV62Mk0Dmx3qURC2QTa2F169fT8NJELVvWa1LSi28k2Dqx3zKq2hf8tbLkklg9GNZfZZ3796lofKp/VAZ5OufBGWd+wB7WSWtS9xa2aXcjx07lsZJLNMXL16snTlz5keeYj6dN28n7qfyLnfv3k3DSHnxfDoGT548qaYcFPMej4HXb1evXk3DOI+SKO+x5dbHP+ZXycffZqljAACM3eCCXT9A5SDBQc4iuX/n8ePH0/D9+/dpqIBE3RzMQdObN2/SUN0rFFT5jRExIHTXC8/rvsGmdYu3lVNwqn1XoHP79u1q7HcfPnxIQ2+3jvLu7ThobXLr1q3q089gvctbG54+fVp9aqaAMVKAKi6bLuUex+eapom2o4AwBuY6TipjlXVeli470TFo6k7jvGsf44OWWsbbcz3O5xEH6QpORXnRONWlmN+SaesYAABHwWBbdhUkODj68uVLGi6CA1RxMOPtqRUu9oF0i1oMitwi+ODBg5TELXLiebVsXJdb+Or2za8IO3nyZBrmFAR14QB+VgokHdjn5VGXxy68DulT7tNQ8KgU163kADN/60efsnPeT5w4kYYlTfOofGNZOC9tAbxMW8cAADgKjvzbGC5evJiGsdXRwYhaxuJtYSe3SIoCZAUZCpiU9Dm22jlYUZBVWlfeamsOtOpaVh2gt+nSotuV9jsPskstz324RVP6lPs0dGyUSutWamq5beO8NwWWTfMoYI1loe4aXU1bxwAAOAoGE+yq/2nsV6qTv/tA/vLLL2k4T7qlrNYvBQgKgGJAoL6fopaxLn1dY5/dGzduVJ++O3/+fBpqG33EIDp/qt79mBV4NrX8Ke8uw8uXL6fhLLQ+BdkxGG27xd7E++Ey61PuKpsYHJrLw109Il3YaJlSX+dZOe8q77zbjbfni6DSPK4fungQ7YePf1s3nmnrGAAAR8IkYBmESeCWnh7P0+TkX83xnf7W+O3wNoGSSVBzYF2lpO2WaP2l+ZXyPImnldTtm9IkcEzzaKi/4371eRrf5VJKcZ2l7UyCpDROZWbedtxXl0lctoum/dC2I2+jlGJeSmWq7Yj3JybvWz4+Js/jsvT6uqrLe6xjLv9Sysuiz/HvUscAADiKBhPsloLT0knagUhbwNUl2G1TF2yUKD8xGMuVAqFSEFTarzx4i8uZyyVPecA2S7AreV7yAK1OvpxSXXl1Lfd8nTH/cbxSVAoMY3m4LPOy66KU91I9zuepK4umepxrq2MAABxF6/pnclLEitMrq3TLexJYHXjSfx7UlcJdIkomQVljlwoAAIDDcOQfUEM3+q95NzYOPty1W70i7vnz52kIAAAwJAS76Eytt/nrv+b5tgcAAIB5I9hFJ37jhFp347tc5/m2BwAAgHkj2EUn6geslt2cuzbQXxcAAAwRD6gBAABgtGjZBQAAwGgR7AIAAGC0CHYBAAAwWgS7AAAAGC2CXQAAAIwWwS4AAABGi2AXAAAAo0WwCwAAgNEi2AUAAMBoEewCAABgtAh2AQAAMFoEuwAAABgtgl0AAACMFsEuAAAARotgFwAAAKNFsNvi0qVLa+vr62ufPn2qxizHs2fP0nadTp8+XU0ZhmWWi8vi/v371ZjhUh6VV+W5j/x4x/T27dtqrsWZNt86/lpO9WHImsq3lExln0/rWufzbd68ebOaAgBYJoLdBjqpvXz5Mn1+/vx5Gi6DAo+rV69Wf3338ePHdMLE+Oi45sc7Onfu3NSBki9KlsmB8zKC9EW7d+9e9emnjY2N1osClXt+TB89ejT4iwIAGCOC3QYPHjyoPq2tPX78uPq0eHfu3EnDvb29H0nBLsYnBqI6xvGYO21tbVVz9Pfhw4c0XOadic+fP6fh169f03AIrly5cqBcNzc307Td3d0D06I43ss8efIkDZtoXi/n768unvu2ngMAZkOw20AtMaJgQyerZZykHJT4pGqnTp1KJ83cKtzaR5lbax0U6RiXPHz4MKVpKNhtWvciKK/apgLMVffixYvq03f+2xcRda5fv75vWZX/zs5O+vzmzZs0BAAsB8FuDQeR29vba7du3Uqfu7TmzMpBiVqA2vrpKlh6/fp19RdWiS5qfDGVB1RYfaVA//jx49UnAMAyEezWcLeFy5cvpwBUrW8KQJfRD1EBtrifbmmbCsYVLClPmkfJLYWlh2pyCqQ1Pn+Ipq712vMr1fU7jPOU1uV8OZ+eL2+ddp9Ppy9fvlRTfsr3sWuf1riMUl62Wo/G5+VSt37P79TV+/fv03DaLgraVn4x5DzH8vQxyXXNd17O+TZLvG6XrQJ7L5sf21L3ii7bzNdTV2/nzXW/1Je3jbt1nDx5Mg0BAEuyhwN2d3fVX2BvEohUY8rjFmkS8KbtOelv29nZ2TfNyXkrTdvY2EjTTH+X5lPSvtok4C7O46Tpom2Xpsd1xTLMt+/5JhcV+8bH5DKoy5PKpUndur0PUrcfSvEYSFMZtuXFx7dtvjpaNj+mrhcxn85j1DXfXl8pmY+FytZchj6mbXUo6rLNunnicezC9SHW0Tqx7vTdjvXZHgBgfmjZLXCrzbVr19JQzp49m57C9q3nRbt9+7bO7tVf3x9ac4vdmTNnfjzwMjmBpvmU3K8zjlNSvjV/qRVtEpj8mE+f5d27d2kobtHM16m/c9qGp08CrjQurstUhipjzadltF2Vr1rn/PaLuK5JcJPG2bdv39Iw5snba+P5lby/bmWNVGaez9uPXUZ0LHwM4jq75qON36Lg1KVFtYs++fbbBCbB2Y/5XGaui32pLL0ulbHE1vUu23RLv/LseUr1cVGU7777r31U3VY+VdcBAMtDsJtRQOiAS698igGHg4RpT/TTiCd7BbzKX9vDRnkf0IsXL1afDnJ/ZHFw76fpRWWhk3tbv1IF2jFfv/zyS/XpIJ3w3adRyzhI94M7CnSa9tEXHu7CIbo4aHsgKt+H8+fPV58Oirepvd74UJIDX9eJaS37YaWu+XYAqoAyBmc+VtP0Fdcxi8foxo0baejb+123qa5Fou+DuxXo2LZ9L2ah9effxT70wJrcvXs3DQEAy0Owm4mvG6uzzNeQiU72Psn2ed+v+0q6Ndotol25Jbhvq6ICEF0oSAycrS4o8faOHTuWhk0UeLo1T/tY16e2jvbJrYilPsFtHPhOG2D5YqDuToGDq1mD6VzXfDsAVVDniz0naXsbwTS6blN5V9mIL3iW1WdX30W3SLu+tlHd1HHMg3gAwHIQ7GYcfOhkWkoKOnXiWtbJ1ZpaIXN+UEknZed5Gn0DOQcmasVS62xffbengNDBoI5bW4u7g38lvVkj7x7Rx6zdChT0OFive+BvEbrm228OiF0FYlpEsNt3mxrnY6gLl9gdYij0XVTd1LHW3QcAwPIR7AYOYJuCQ9/qX9RryByQ5a1Gvv154sSJNHRgmAcAWk4nfp1cFQzMSutR61lbIOmATcFnW3eCOg7om7pdiI6TW3JVDg54226te70ql1lb2C5cuJCGswSqvj3v1smuLYWiCxntd6m/a5Ou+Xb5qJV1WRd2XbepY+/pqmsOeEv9w2eh45FfHOh7oHJX+bddnPm7KHkXGgDA8hDsBg4oYz/WnFvkFKA4OFHgoGBlnkGBTqZuhVTyCTYGkg544nz/63/9r2rqT32CqJwDsvzWsva/yTT/e5b2TWWb71MpiFNrmaerHKRvy/A03RdMrXTargNVJ5VTVzFQl/yYK3nfcg7cY7/yunmjPvmOraZxXqVFtUZ33Wac7vrhC8F5yuuiyym/2PX0+F2LF21xHUqLKj8AwEEEuxUFqjqxKdhqC5r8sEnffqJdaNtqecwDF+Urb8Ut3Ur+M3/mz6TbwDGYMQVGfR+uc37aOCh2wOZgQEFpn1v+agFr63ahoFj7GGkZ56GO8+RycUuwAphpgg+Vv47LLFy++f5E6hKSH2vta9y2gsSu737tmm+VcwzGo7aynlaXbeb7Ltr/eCE4Dzo2pePS5c6A6nzdfgAAlmt98sM9+71uAAAAYIBo2QUAAMBoEewCAABgtAh2AQAAMFoEuwAAABgtgl0AAACMFsEuAAAARotgFwAAAKNFsAsAAIDRItgFAADAaBHsAgAAYLQIdgEAADBaBLsAAAAYLYJdAAAAjBbBLgAAAEaLYBcAAACjRbALAACA0SLYBQAAwGgR7AIAAGC0CHYBAAAwWgS7AAAAGC2C3cz6+noxvX37tppj8e7fv5+2qWGT06dPp/k+ffpUjZnOzZs3Z9rHWZefh7558PxKz549q8aiL9W9vNw9Tkl1FPPn7/4qcv24dOlSNaYb/R72qU/6XrsedkmmupxP6/ob699uJ+o/MAwEux2dO3euNfgcAp1A9COLejqOjx49qv5aWztz5kz1aTh0klyFE6UuGra3t9fOnj1bjVlb29jYqD6trV28eLH6BMzm9u3bqT6pzi3SvXv3qk8/qU53uSi+c+dO9em7jx8/9gqWASwGwW6Nvb29H2lnZyeNy3/IhujDhw9pyI9rvcePH6ehTkQ6vqdOnUp/D4nypjRkOvmrvikIMQcEW1tbqWwfPnyY/gbm4datW+lCtcsdnCtXruz7HVfa3NxM03Z3dw9Mi+J4L/PkyZM0bKJ547L2/Pnz6hOAw0Cw24F+NN1aNfQgUsGHfmSHGMANgY6fgkidlIZQRjppl07c+clyiK5evbp248aN6q/v3rx5k4bXrl1LQ2Ce9J3Vd7fU+jovL168qD5957/dkNAkX1ZBtXz+/DkNARwOgt2eCCIxLwq81T1mFblLz+XLl9MQWJbr16+vvXz5slPrLgAIwW4H6iOm1kDdmh260oMrdQ9qlPqExge3Zu0bF9elFPs8+0GOfBsKAD1/5L7ITl36z+W0TbfQ62Sp9eiE6fKJ+RNv0635zpvKzfl38jxR3BeneIJ2XhTwerrXo89tx8cpp21ovPKfz5/L60ZeBnVev36d8h8v/rS8+0Jrn/wAkvMQy1opL7Mu++blNYzze1t5mWu+Lvy9ialU/tI2T+m450rLet9KxyCuS/tdx8c+pq5lYHndLu2j8xpTrNtRnqemW/pxPqW8joj72D99+jQNF811a5rWZF/MqvsFgEO0h31UJKW0s7NTzbF429vbxTzUpUkgXi25tzcJQNI4a1qX5pVJEP/j73weLd/Gy+/u7lZj9vY2NzcPrEtJ81qeV3F+Y3mX8qUU81bKQ65UFppf29LnfF+9Dy5fDeOyeYq8zjxpnVK3T96WPvv4WD5vTHG/9bk0j1JcZ918TWUoLgfvi+Xr8XQfm7z8Y17i+DzF/NSVa1Nq2x+pOx5KcfnSfLFO15WpUvye6u/8+JbqYdP6lCKXcynFPDap+97G72PdPEr5d6j0nXOK9afpu1U6fhqfl18XznuXOhH3Mx67LrzcNHkEMH+07Hak/ol1LT1D5oexJsf6R5r8AKcn6Et90DzP5OSW/lYLXl9q9VHLqbYTtytq+XNrjft7xpYsPwSoftKiaZMTzb4HP/S39H1gUA9SeVmvL75FoA+Vj/Oj/ZTYsqX6IirnPN/y6tWrH3cKJifeH/PUdZNxa14sByWvo647RFy3KA8u/69fv6ah1pGvr8m3b9/SMM9rXF7bzfsv6nh5OyoXP/Azzb7F8o/lqs/58n1aAOPy/g7E7Xtbnkf7GekWu8T8aV/lwYMHadiH1xePkZLrnKnuuVU97oPzp2ltLbz+3kpch/MvcR5PV3JZ6Rj7e6B65u9o3fEy14H4ffE6696OUFrPomh7Xe96RMqjWqjrWr0BLMnkRwWBiqRULJMf4TReV/uL5m1p2GTyA5zmm/ygVmN+jrP8b9E4JZucSNM8kxNjNeY7jYvz1cmX998xXzI5eaXxGlrchqfH/VZ5a1zOZZRvM9+HnPKk+eJxLG1XvG3vh5fNy8R58X4pD/pbeWrSlOd8O6XtmvOZbz+vq6Xt6e+mdZfUlZeUtuFxzl+uafv5vnnb+bryYyU+Xm3HQbT9fHnJ98d/x3HWtD2tP+6j5sv3OS9Xry8/juL8Wp7PyOstrSdqWoeVytn8PfD+5/tjpf3K/zZvL9eUjyZermkfc/GY9+XjVNo3AMtDy25HahWc/GClVo1SP7Khcutp7Ac3OUEstJXa5TP5od+3Xbd2fvnyJQ1lciJM+VGL0d27d9O4+NCTW5/jepTcYuTWySFxnk6ePJmGs3J51h2zCxcuVJ/6m/wG/GglU7lO03rV1fHjx6tPPy1y32yW72t+DPUqNdVZUYtvzLdbvNWKmtdXla9SH3Ut6CXex2PHjqVh1PU90k3rMH8fS3n65Zdfqk/f+Xt+4sSJNKzj7boffUxuRa47hi6jRdIx13dE+tYl3cGRLm9yALA4BLtTWMYP7LwoSPfJ2fTDnd9iniefCHVyVzCVp/heVge2CoQ1/9bW1r4TqYOJ0nqU3N1hSBzUzet1Qy6PuhPmNF1NIq13t7rdrYuIttvd87TofZtVafuqv6p7vkjwA0wOElWH83rq1EdT0JlzOZZ+m96/f199ata0DvP3sRT0vXv3rvr0XVuQa96uGhNKZabkeXJ9ygjA0UWw25FavNzKMG0/z8OiACaegBfdynD+/Pk0dGtIE53ElDfL38/qlr26lr95cHDq/s0S+yb25fqhFr68pdSBkbjVsEvrtMooBlamvo7OZ9/AX3lz/pRnB7x+V26deQfzi9i3efB3XvVY5aMAL9ZDfY80zXlUXdbfpeOec6Bc6udtcX1tFyD+3qi1OQaiWr/X6/6/dfy9La3D++N1KF+R8ue7Lc6LW5S1/bYWUd81c9/dNv4NqwuCp5UfY9G+61hpn5u2pzLI8++/+Z8EgcNFsFsjv50WH7Qw/Shq2pAfPnDe2k4286TARCcvyctRKT9x++SoZfILCbWiOTAorWseZe9txm3oBJ2f0PtwPVG9ifmNFxpu+dK2PL3uZO//iUwBQVyfAiFxoNpXzJ8fxGrrfuHWtHnVqUXt2zR0zL19f+fj/5yV10MHQeZ58+OuFIMoBz8qc08v1TevL9YRJW03Uh32RWPcBx9TTWu7YIjf29I6pO677YBad5H8fVJg6LtKcX2l/XQd0DGP63XK5eU+T/kxLtUD8fT4Pcjz7wsh7x+Aw0Gw24N+BA+jhWkWPgnmgcSig191k8i7T4hOlHkZKo8aX9fypADRJ/JI43xinVUePKgFfJbWZO1jvk6J/+OY5snLqCnQVJ5K5aDx05SDLiTy9Sk/sZtJiVsc53mHYN77Ni9x+9rvPPDOy0HzapmSGCwp+HHQKLo4Kr11QOsr1aMSrbN0YaB1dw226r63sR+95okX/aZt53VHf5fmzalsVW6lADZf3r9di2gtjQF61KUexgsB09919QHA8qxPvoh8E0dKrZ6xVSank8iqBe8YBt3aVYuXAjEFCKtOFzbal7Hsz5jpzpBakhVcH+aFEIDVQcvuiPn9ojqB65omJslvywFduQWv6X/DAhZBv1tqMSXQBdAVwe4RkD+NPeQ+xlgdut0bH+oDFk2/XeqSRR9YAH0Q7I6Y/z/2/OEWd21oezobaOLW3bY3BQDzon7NusiiqwmAPgh2R6zpoQ91baC/Lmall+brYoq7BVg0v/6s7QFKAMjxgBoAAABGi5ZdAAAAjBbBLgAAAEaLYBcAAACjRbALAACA0SLYBQAAwGgR7AIAAGC0CHYBAAAwWgS7AAAAGC2CXQAAAIwWwS4AAABGi2AXAAAAo0WwCwAAgNEi2AUAAMBoEewCAABgtAh2AQAAMFoEuw3u37+/tr6+XkyatihN21W6efNmNSeOOtWFS5cuVX9NT+tR3Xr79m015ug5ffp0KoOh0zEayu/Ap0+fUl7mUQeXqe/3pu03OSbVI3v27NmB6V3l21zkOQcYO4LdGvpxuXPnTvXXQZp2WCebR48e8eN3iBwY6kR/mBT0qC68ePHix9/zrBda16oFMUMy7+OB+Xn48GEaLvrY3L17t/r0k+pE20WlAub8/HOY5xxg1RHsFujHSDY2Ntb29vaKaXt7O82zSNpGadubm5tpun78OJEun4Pcb9++peFhuX79+trOzk7119ra169f0/Dz589pOAvv44cPH9IQ/c3zeGD+FIjqN7TLRevt27cP/A7r/CAfP37cNz5+ZxS0xmle5unTp2nYZGtr68dyu7u7aZwubtsCZQAHEexm3JKlH5qmE71+/Nw6sGxqyfOPX9cf66Nq1ouB0vIqf52Azp49W41ZPuVLJ9krV65UY9bSZ+VrHvXy1KlTaV1DCnZX7cJunscD86fvr4LPBw8eVGPmz3dd7NWrV2nY9pt97969ffVGeXUDy7t379IQQHcEu4F+gF6+fJk+D/0EFX/8FvljvcrUXy6/FdiHLnyG2iqn/dIF2VEx5GOB1XXjxo3UWjq0BoN4EWsnTpyoPgHoi2A3eP/+fRquShCh1mVxa0FUejCi7vZX00MUOgno77zvplrZNF7Lmm7ZKXkZJ2/XfV2V4kMckdfrlPdRcz9I5SeuTynSfFevXk2fPT1uMy6nlJeN1q0LH/ePVnLLoratv/MTpPMWUywfUz48rW3eEuf1/PnzaWheX2wBnXZbpePu8s7XlR8jczk5dd2/XNOxsLgdpVLwktdLpfy4m8tNKc9313Lw9Dyvbfnw+p3qyreL/BjkeXGdbfs+WV7Hnz9/Xk1p5zKNvL64j3n5xDpoeT7id9vi9rxv+Xy//PJLGvbZj1lcvHgxDUt9edt8+fIlDQl6gSns4Yft7e09FcnOzk415nA4Hxq22djYSPNGm5ubaVwp5eucBPaN8338+DH9rXVGpbJyXrqmfJ11eYnz7e7uFudR0vbFea6bXlc+Wk68b3lymXh5zy91eVfStKipnLR/bbytfF4dC42Px7jrtvJ1lo570z7GbUrddvP52rQdi7pjrRT3z2WTp7h/znMp76WyKqW4f6Xj0ZaPuulxHcqLxuX1KldXdtqGeV2lpHKI6tanFMuxjss1Ku1LXK9TlzJUiry9PN9xW6V63pXXH38H6sQ6Na0+2wOwHy27I6PWJHfFmBzfH2lygkjjdPvbrUgaqrVMJiedA/NOY/KDvG+7kxNLGq+hx01+rNM45dMtcDEvcXmtT/M5z1HMs2i9Xp+X9Wel2P/U45ScR7fsX758+Uef6Jhvt6TnYt6VB8/vdWhaqVUzrtt56NIfz/t47NixNOxi2m2VxGPsuvL69es0FLUeqhwmAcSP+XzM+3YraTsWbhGcBDQ/pjlP6vdobuWP8zlPObW+eZ6msmorh5Iu+dC6PM373rbeOvE74jy+efMmDXNxXlG+XNc09LGL+asrw2l5e6WyNZdhzK+PU95yLSo7z6c6GbuoqW+6LLNvulqYS78HTTS/ylr76TwD6I5gN/DtobqTwdDoxKAfQAd18uTJkzTMT0LqA6YTrPhJYJ/AdTKJD1tp3rrArq9r165Vn37Sj7VPTua8+ORu3p882NBJK+bZ69MbEtpOBvlDI3l3gL4nE5en8h6XVf58ovZ+RLdu3ao+/SynLv1SfWLuk89pt1USg0j3LYzBggOzWM7Kq+tf6cKlTts+6kJIdSHWV+VJ43zR5+2pjsT5tO68LkgMhprKqq0ccl3yofV4XRLreF/aRlz+zJkz1aeDmr5P4gtBHcOYv3lTWSgv+v1SUKjfOG3P5eUyVD5ifn3MShcF8XiWjrd+P+cdtOdULxxsS99uDA7w4/cYQHcEu4FPBm6lGzr3M3M/MGkKhNw/zXwCP378eBoeBp9MnZdz586lk5yT/pZpA7M26sPnE4n7xPXl1qhSS2tTgDFWroPxOCq5ZdCv5JqVy11Bbb4tB7qax9s7efJkGh6WvvlQK6X2RZqC6C7UAu6LYpdbH8vsL6qA1MG28hz77LoMVZfyYy6lcmq7YLJpyqUvB9t9gmvvvy6cu+4LgP0IdgP9kPhHtvRQxJCohcPBQ7za9wMYpR/uvHXUJ915BR+zcF7ircmY5vl2DJWNT5Bqcc1vk/blE1DpvbtuETtKXAdLx1FpXi2DLne1lpW2o6R5fDG3qAumrrrmQ789qpuaT/swCz+kpe/XLK2Xy34oSt9377suXNxdxWUYu4HENMtFwRADSV3waP91XlpkizowdgS7GQdVbi2qu9rXj9BhBcTarls89aMff6T1Hw1I7Nog6vPl4Ni3Zt3Sq5bNeGtZ++yTi9et8nBZaOh1zYvzov2qK/O+6gJ/t4Tr5Fh3m9ittF3y4vLM864ydauxj8s8NF3QDMGFCxfS0PmcVdOxcHcF19cSH2Pdscn7dC7zO9wlHw5udAE26wWeykQBri4gY7eJafgOherztPXO9SH2V82/F/rOxGOi76j4jTMuQ/3+9O33WkdllP9ezkO+L+J66u4MTdygobzN82IfOIoIdgv8Ayv6oXErYEx5sOcWlBg0zkrbyLerpJOh6ISYn8R09e8f0riMg67Y101Dt2TH7gP5D7/X57LQMJ9nVjEvpTLPg4MuHKjH9ZVOkKXuCzHIj/koqcu7L0jm3SrjvB32/+BWR3VS5aAgIpadk78j/rsteGo6Fg4CFEDGaXEecet9/p2atXtAX33zMc8Lmlnqi46Bfjsk1nF97soXQfot8vIlpeMcL5xchnE9Tn0vXly+87owy+X74i5yMXhVHjw98u9H6XvUdHEH4CCC3RoKeP3jXqIApvSwwzJo28pfXQClfPmEEJVaePSjW5rXrZWi9cWTmtajl7HPW11etO1pWqa0vrwFRbdB/bCYTxx+qEUBSDxZ5rd9m07s2pbKJaf9iSe2efADdUPoflJHwZsvACKN88WWdenqUXcsFITpu1A6NrEu6buSr0MWUY+btOXDFwoO5HQXQn874OkT/Lre+ULWD9Q5AOtLeSt9P7vS8rFO6Pc1f3BTdSPfhr7D8be2rgyl73fNFwAOxOcpXgSbjqXqqy/g6kxzfADUW5988WbrFAZg6XQy1Il03oH0Milw08lfFwl5AAwsg+4Y6SJXwXNbAApgddGyC6wgtYqtyltD6uhWLIEuDtPjx4/TRSOBLjButOwCK0qtu7rlO8/+wMBRof776i7CKRAYP1p2gRWlQHea/2MfwPf/2GGWPsgAVgctu8AKU1cA9X09rIclgVXktxmscp93AN0R7AIAAGC06MYAAACA0SLYBQAAwGgR7AIAAGC0CHYBAAAwWgS7AAAAGC2CXQAAAIwWwS4AAABGi2AXAAAAo0WwCwAAgNEi2AUAAMBoEewCAABgtAh2AQAAMFoEuwAAABgtgl0AAACMFsEuAAAARotgN7O+vt6YPn36VM25GDdv3ixut5QuXbpULTU+05bDs2fP9k3Tevo6ffp0WnbRxxoAACwewW5PGxsbKRA6ahRQDn2/lcerV69Wf3336NGjUV8UAACAZgS7Nfb29g6k3d3daur3FuBFePjw4YHtWj7+xYsX1ZTF+/DhQxouq7Vz2nLY3Nz8Mf7jx49p3MuXL1OLLwAAOHoIdns4e/ZsCqIUUMk0t8iHTsFsKTBUsKt9P3XqVDVmeK5fv74v8FVed3Z20uc3b96kIQAAOFoIdqfggEq3yMfWr1PdNFbVlStXqk8/HT9+vPoEAACOIoLdKW1vb6fh+/fv03AI3K/WqdRCG6frQazIf6vfq+d5+/ZtGueHtswPgql1O243X6fogsDT87Toi4WvX7+m4cmTJ9MQAAAcLQS7Uzpx4kQafvnyJQ0Pm4JM9U2NFLTev3+/+utnMGvq0+quGApY3ce1D7Vux+1qHfGBMAXLh9la/OTJkzT85Zdf0hAAABwtBLsjoIBWQWbp4aw7d+6koXic54kP3OmBMLdWq5+r51E/5TZab9xmDH6fPn2ahtqW17m1tfUjr4vsA6xAW3nRtrrsBwAAGB+C3Sn5gSe38B6m169fp2H+cJaDV3dFUJAp6j6gcQoAFeTKtEGn1ullNfTDe23dExSELroLgx5Yk7t376YhAAA4egh2p6Tb93LmzJk0PEx+LVjeH9atuu63Gltvz507V+xfO2/Xrl1LQ23P+XLZLbJVV90z1NKs/aVVFwCAo4tgdwrukxpbNQ+Tg1Z3E8hTfEvB7du30zj1o1UwGPvXLoICzdhdwtzlYRH08JwCarUya38BAMDRRbDbg279q2XSfVLdBeCwXbhwIQ2bWmrVZSBOV2uwAt7Yv3ZRD93du3cvbSsG4Iu6SNB++n9RW+Z/ugEAAIaJYLeGb7nHpFvx4sAt5/kW3Rc1p9ZLt9TG/Dq5z24+XX9rOfM7adX9wfPMo+VXAfUiW3KjixcvVp8OHkPviy9altGNAwAAHC6C3Z4UtLmP7JAoT34ALdI4dSVQS2renUCBbtwXzef/cczm0QLrdcbAcxH/fa+C12UF1QAAYDWs75WaKIE5UWBbR4H4ULqCAACAcaJlFwvj1tv43l4nPTzmtzIAAAAsCsEuFs7vJI7ig3EAAACLQjcGLFRTP1q6MQAAgEWjZRcLVffgnLo2EOgCAIBFo2UXAAAAo0XLLgAAAEaLYBcAAACjRbALAACA0SLYBQAAwGgR7AIAAGC0CHYBAAAwWgS7AAAAGC2CXQAAAIwWwS4AAABGi2AXAAAAo0WwCwAAgNEi2AUAAMBoEewCAABgtAh2AQAAMFoEu5n19fXadOnSpWquxTl9+nTa1qdPn6oxBykfmuf+/fvVmIOePXu2L8/+u2mZVdClfDRN82jeJl5XnZs3b6bpXdIy6kabtv3BsLm+tX1HXb+7prdv31ZLHvx90+9CH8qbllv13xEARwvB7sDcu3cvDZ8/f56GOZ3oXr58mT7fuXMnDUuePHmShnfv3k3Dw6ZArC34XCYFAB8/fkyf+57wgXlTfXz06FH6rO/1IupkKUC9evVqCrIBYMwIdmvs7e0dSC9evKimLs6VK1fSsC6QzYPg0knRAfHGxsba2bNnq7GHS4Glg8sh8EWF+MIg9/DhwwN1wPLxy6gbGK+vX7+merSzs5P+rquTcurUqQP1b3t7O03TMJ8WfwN2d3d/jPcyDrIBYKwIdgdoa2srDUuB7OPHj9Ow6aTogPjGjRtpuCh9bmX6BDsE8WJgc3MzfY63eoFl80XumTNn0nARbt++vS/w1d+q/6LvBACMFcHuAF27di0N80DWt951gtLJUcGaArX8ROWAWCezRVEf1c+fP1d/rZYHDx6koVp33c3j6dOnaQgcpvfv36ehWm8BAPNBsDtAan0pBbIOyBygueU2dm1wQOzW4RK1GPsBlVI/Wj/o5JS3MKuPn/Km25+ep62VV/Pk28q3syy+basLBpe1xi2ydSuWuVKp3D0tn7eu1TnO07ffZVy2lBeJ8yiV7jT4YUmn0rr8UFOe6vYrfzCw78NQcVmlmG+vW9uO5Zwfe4+vmy5aR5yn6ZjG1PQwo7/bvuBdJJWrvsf6rSC4BjBqe9hHRVKXJieFaq7F297eTtvUUCYBbPp7Epilv6U0TnnUuN3d3WrMdzs7Oz/m1TCmzc3Naq6fy+fJ63O+8uR81tE8MZ/aZr6OmI86zr/2vU6pXMzlEPNbGldH8yn14fzkKd/f0jxOcX91LErzOLUp1YFYt+vWH8uzbp+cYn7r6oxS/p0q1YvSfCVd8u36nefJ8zTtV/xOuc6UUlSa7hTLSJynLt+DnJftUofjvms/+uizHQAYClp2B+ry5ctp6C4JpX64ao2ZnLxTS65br9RCOTlx1z6YpnmVJsc+DUWtO5GnK01Oamncu3fv0lD5mpz002dt2/P17TLx4cOHNMzzsmhuOXP5ivtLuqwXIZaVkuTlbipzzzcJfNI4396W69evp2G+Th33LlzWXs7H0+rWH7klOZ/H+b148WIaRnG/lET11XVXQ5WJ9qM0X1vLe5d8mx4A9XTly12GvF8xr5OAMI2LDzXqLQaisvN82q6UWqI9j5K/U3kZ+aFUPRi5LNqPIbw2DwAWavLji0BFMpRimZw8U17UoqSWJ32eBCrV1O80TePVGtTUQlk3zS1p+XrN64/LeZzy15Xmd+uZaH0ap9SndamuHCJNy7cnzndTasuL55uVyz0qrTs/bt43LZ9z2bRxvVJSmURN67e2eZwPr9vHOq97eT1yvvJj6zJoOjZd8i3eRt266tahcZomzne+P5Ivr7+9XOT1eV/z49xXXRk38TaV8npQZ5rtAMBho2V3wNxvTy1Wk5NiajXL+9bF/r2lVstZqMXn3Llz6fO8H0ZTS/DkZJs+q3VJfRm7cL/Ib9++pWGJp+V9KGPLXJ2mVz7Ng/t5ulW3bz9h79ssfSzVcjgJVtJnHd9YTl3W3zZPqVW35NixY9Wn71wWqs+xj6tbUb98+ZKGJX3L5fjx49Wnn7x9HZu4faV4vPSaMFFLbD6f+K5Fk7p8zuu724XuaEyC//TZ+wQAY0SwO2AOZBXoim/T5ty1oS4g7ssnbm1vN7vFPU862U4uuH7c+i494JPzvjW9PcHTYjkoSCndIo9J+dA8dQ9OzcIPaalMva1p5AHitHSxoXy4fvlWttffFIS3zfPq1avqU7PYNUN8vJSfeFycmrrKdMl3G29fx6a0fSXN40BZFwyleboEu3kZ6bswj+8uAOAggt2BcyCroMR9S3OxNaguIO7KQY8CjrrtzSOwcCuY6D9k0Ile22xb561bt9JQfThLfQ01TtPE80qXdw+77Ob9GjIFz2oFVCtal0CoiYIh1YXY17UPlW+8qFB+tD63XHr9+jt/w4PLW/P4wqA0j46j1lHXb1yUD7fY+g7G+fPn01DL9tUl313U7Vfk/dIxneYYaN0qozy4XfR/TKLjHr9fqpf+rizy/b4AcOj2sI+KpCnJ5ES17+9F8rba+shNTpwH+qhGdX0CtZzGazulv72c+1WaxuWpiabH/OXLOnUR+xrWJc0TeXwb5bFpvq7rifK+qeLtuJyltO7ScfP66lKTWHdjisemaf1Wtx6nuF/Ke2kepbxeuf6VUn5Mc13yre3pb81b0rZf1lQHtQ9Wmu4Uy0hKdaIrl3HT74TXn6d8Gc9XKqMu2wGAoaFld+DcitbWl0/9dZtaLbvyk+CTE15qfXUfVrUAxRbByQm5+vSd5u8jX14m9bH61Czv/hBpnKbFVmk/Ha+W1TYuw6aWvb7UEqhtqwzdRcRlqXLr2zqo9ZXKrwvVp0kQU/31nfIQW5y1/tKxiOWn9ZSOgdal8bHFss4kYDzw5gG1bk4Cqeqvn7SdujsN1iXfbbxfpfqs/JryUncM2t6mUFdGXp/7H89bqT+66sIi//MZABiC9cmPbrcIAwCmoIsN3fJXEHvUAit31+FnFgAODy27AAAAGC2CXQAAAIwWwS4AAABGi2AXAAAAo8UDagAAABgtWnYBAAAwWgS7AAAAGC2CXQAAAIwWwS4AAABGi2AXAAAAo0WwCwAAgNEi2AUAAMBoEewCAABgtAh2AQAAMFoEuwAAABgtgl0AAACMFsEuAAAARotgFwAAAKNFsAsAAIDRItgFAADAaBHsZtbX11M6LKdPn07b//TpUzXmIE077HwetlgGeVIZjsnNmzfTfr19+7Ya087l02eZaXlbly5dqsbM7v79+2mdz549q8aslkWUyVHl30SZpl5r/q4p1jdv10l1clpalroAHB6C3YG5d+9eGj548CANS54/f56G29vbabgsDkCWEUA1UfC3sbFR/XXQx48fUz6PMpWR6sfZs2fT3zrRHvUyweo7derU2u7u7tq5c+eqMYuhoFe/I9GdO3emClj1e6llARwegt2BuXLlSho+evQoDUseP36chrdv307DZfn8+XMafv36NQ0Pg4I4l41Oent7ewdSfpI6anSi/vDhw776ob9FLWPAKtMF3ObmZvot6CL/fdjZ2Unjt7a2Dkzz769oPo/3Mi9fvuz9HVp0YA6gHcHuALnFtnQL1y0O+qFetocPHx44ISyT9t2BrvLhVsucWn80fRnUanPYLd25q1evrt24caP66zsFuyoTlQ2w6q5fv55+CxZ18abfuPg7p8/+zf327VsadkHXBWAYCHYH6PLly2l49+7dNIyePHmShteuXUvDo8T77laWw6YT7dBabdyv0HUIGCMHok3dvQ6bvotqCV52dzMABxHsDpBa33SbTi24sdVQwZV+PDWt1KrpfplOecuw+9xqvNbr+eI28ocyoroHpZSvuIySg67I+dP22+Yt0b7LtC3L+XaV6vZF5eDycspbkdxvWAFvPk98qMblpnG5vLxnbQl6/fp1ylfeghvzIy4L5S3Wm1IepVR2TerqisaVtuH529ad56NreeXH0inPn/7WeOUnKu1P13qcfz/yelQnLqOU57XvPuWplN9YT7zPpePl+Zzy4xC/65HLzPPnZVhX/0r0O9jU3WuelE9tq+63N6f51U9Xge4vv/xSjQVwaPawj4pkCMWys7OT8rG1tVWN2UufNU7TcpMA50feY5r82FZz7KXPHpfPJ5Mf8gPjNc68/d3d3WrMz3WWUlxWSut3Ku1TNAn803z5Ortq2nYsI2+nLlldeWv5OD0vHx9PlWEcn6eoVO4lTWXk/JjrVynly3v7eXK5lbZbl2eNU16iurJUivWirq7l6ytpqqc+JuLjEsdJvj91x8/TXSZ1+9amrr66fknffSqlumMxa72tq4veL033PHnKl3Gecvkx6ar021onfk9c39vk++4yy/cLwPLQsjtQar2c/Mjva7nw57xlUy00kx/Y1OowOaYp6W8pPQWscZqu+SY/5j+6BfghJk/zOuqohcrrn/ygH9i2WmJLrUcxn5MTSBr35s2bNFwEtbK4VdjbVfJ+ax/y1jDRdM+rYyGe79WrVz/68MV9z1tU1dLqadpv9XsW9TkU7b+nK3k7XVssI/cl7NsvNz/eLivR/rrexf102c3KdVe8biXXC4t1zflVUpnqbx3jLvLyFu1f1+XND2mqDnhdrg+R8tZUj5p4mbju9+/fp2HUdZ/i907JZZe3Ysus9dZ3p1SXvK8a6m+Ndx2N5acksf41OXnyZBou64FZ1b8uLc8XL15MwxcvXqQhgMNHsDtgfshIAYFPXKUTqk5MEn9cdTJxwJCfWDXeJxsFzg6evT2duLQ9zdP0g+1XoOlkHm/taTkFRuI3R0SxL7L7lrbd2nV+u54II/f1dVBl2m+X0dOnT9PQVAbxosJl4xOr89PGQYK4LHU8lBcdy/yNGr7g0H52vd1tzpuDgC6UB++LhgpExNt+9+5dGubHWGUzj7eBuO7mxybnIE/5iGXv8p32Ysn1tO/yrhsKKh0AKS/5LW6VZ1M9qpN/786fP199atd1n7wNXbjl5lFv/T33d8tDj9dxjNsR178uTpw4kYZfvnxJw0XQsVMQ7jLV/jddGOnCwXXZXTPcr19lo7/z32MAi0ewO2AOBBUw+gRx69atNIx8ovGPq5NbwvITq08SOZ3A3GKnJ/q1jiZ+Fdnx48fTMOrSr60vnwj7tsK5fEoB6qL705W22RaU9jnhL1rTMZ6HpmMTOaBxvXRyi2LfCwM7duxY9ak/t2gquFFeSncx5kHBtPZbugR2ffbJ5ZebR73Vb4DG6YJAAZ6G2l7pt0HTVYa+mO1zPF1HF0l59oVx0zHQPgIYHoLdAdMJR60oOpkq6cRROgm5ZSneDowptiy1cUuGT1xNt+2abiMuovXCAb9O/H1Oht6H0jJuuVwmB451J+lpWq8XZdG3ipvqV+QLtNglIKamOxBNSt0C+lCw7lY/XVz2vRCro7rqgF53JnwR2kXXfdI23ArZxTT11t0e3Lrp/zTHdIGgfdR8Oo7TXOj1uZOxaHm9VHL90L7p70U0BABoRrA7cPEVYz5x5C5cuJCGXQOHOjrpmIIH/TjrZFgXWLrlWcFnDG41v09u+fteZ6GThLtxqIWoriXNgYLz7XLLW7EUmLj1e5pXuU0bCGo/lBe1AuX74GNYd2HTpC0YmYZbvkvHuNTX01w2sXtIaX7X3bY+ymfOnEnDPB+z0D64xdTH362isYVO28tb7HTcfOx0PKftDlHH/T77BkelfarjbXT9jk5Tb3XxHL938cJb5arvn77TbuHvwy2sdXeqZqH6mNd3/1bwdgVg9RDsttAPngKnWQPJafkEo1TXQqvuB5ru26l56hMcxOXcUlMXdGm8b+3F12/55KYT3zz6dUbq4+eAVyefmN98+6ZyU14kzuegQPvQJ6Awn2S1Hq+zKQCM3I843we3tE3TUulAzUH+PKhcXN6lY1zHAYECIy9T6hvquuv+jE4OLKyurjl1LfdY3t4H7Z+Pv7bj8Z5P2yvtb1yXL+4W1crYdOu8bZ8sL2PVNc3f5zs6Tb11MO3j16RP0LvoLjal+p6Xq+qdptddeAMYBoLdFaCTRVvri04SDkqi0kmvjk9YkVqWmuhEWVpOJ7Zpby23UcBb2makfMcgXXkp3QpWi9y0AbmC6PwE3jXY0TFRHvMgSkF5W5nXcaA2TStZE5V3qeyaWg61f3EZ7VddvjTeFyNNdJzcgprLH3TqSnnMl83zqbrmVlBTXvLvm+rCtHUp56DSwZYf5FOQ2dYKXtqnEuW/b12Zpt66TPL/6ETrUh7iBZEbFbT+ti4hvqjr+vvWR6n8upYrgOFZn/xATXdmHSn94ArFglWkFiYFRArQYrB/1Llc5hmQHrau+6Q7O2qlVEC6qAvQw6DfagXLBKAA2tCyW5C3WgCrwkGPXwsHjJFbfUtvpwGAHMFu4H5Xh9U/F5gHtfSV3m8MjIXezKJ6zt0LAF0Q7E74IQPdEpS6tx4Aq8Ctu/N6DRYwJK7XY+mOAmDxCHYn4v9OpAdg6t56AKwKvflgnq/pAobAr1YrvdkDAOrwgBoAAABGi5ZdAAAAjBbBLgAAAEaLYBcAAACjRbALAACA0SLYBQAAwGgR7AIAAGC0CHYBAAAwWgS7AAAAGC2CXQAAAIwWwS4AAABGi2AXAAAAo0WwCwAAgNEi2AUAAMBoEewCAABgtAh2AQAAMFoEu5n19fWUSi5dutQ4fR5Onz6d1v/p06dqzEHOx/3796sxBz179izNo3kXYZHrXhUqAx2vefDxKqVpeH1NdWRonGfzdyFPh2UVy3Re3r59m/b95s2b1RgM0bTHSd+1Lr9lWq/Wr+2sMp1ftR99z2H67vf5zffx6Jp83nf+Yupb5sqrljuKv1clBLsd6Uv+8uXLtY2NjbW9vb1q7Pzdu3cvDZ8/f56GOX0JlA+5c+dOGpY8efIkDe/evZuGh8Ff2FU5QfqHadk/DvrxvHr1avXXQatUhrNQGezu7lZ/1Zvmh39RfPL3SQqL0/f3xI0CwLzcvn177eLFiwv/PX7w4EH16adz584RuM6AYLcDVbBHjx6lzx8+fEjDRbly5Uoa1gWyeRCs1qacA2IF5mfPnq3GLt+3b9/ScFUCga9fv6bh58+f03AZFOh+/PgxfdZQF1IxbW9vp2mqf2MOeLVvW1tbxfoay0XzyPXr19PwsLluu65jcfr+nvi3elV+f7Aabt26lX6Pu1xw6/cs/p7H37CdnZ0D006dOpWmSel37/Hjx2mI/gh2WyiYdODpoGTRXLFLgawru74o4hbcyAHxjRs30vCw+Iv+4sWLasyw6UJD+X348GE15jv9qC2iJVEBnuqU7xbEHzpTS4LrnX5gS3Vi1a/2Vbbat2vXrlVj6unYqLyW9V1so7qtY3eYF5VHRd3viYLZ0vdCwW7d9wqYlurT5ubmj7uwi6DfuVhvh/a7t4oIdhvoJOzby7q9uqwfTZ/080BW+VFl1xdNgZkqv1pw85YLB8QKlDAbla1uHy2C7xa8evUqDeuo3tVd3CjQXfWrfZ00+tyF4AcfkeoOsEy6s6Rz7yIaQbAYBLs1YpCjQGOZLTfaVimQffr0aRq6H65bbmPXBgfEbh3OqQVE/dhiKn1hNd4d8d33ra0zv1oq43Jar/6Ot9+9rjwfpdZJjYvzONXlQ2Wl6aUHCDSuNN7r1LLOU8yLT6SqC3HenKcpdfkB9Dy6cOlyEeXuLe6vLcqv7jroeHvbpbKJZV0qA/Gxc8qPR34sS/Pl6+hSDqJ9Uj+4Lrx9lVuJ60BMuTyfXmcur39fvnyppvzk+uw64XLS+Hw7JXF6TF3LznRc4/I65pHrgPLkPCvV1YdYZ5TevXtXTak36/fPy7sOe598fPI6KF6nGiW8Lpedl7c+ZVCqR04+1iU+5spDLMN8GY+vm+71OMV9jrocp3ye0v6ay9hJy3aR5zf//egr/+6V8pznVakuv/m8dc/EiOuNk+tTdObMmTT0OXnRVL76nXe3NkxhD/uoSGKaVK5qynJpu3H7k4qe/p4EX+lvKY2bBLlp3O7ubjXmp0mAkKaVUr6fGqf1en35fPqs9ZnzG8cpDxqndVhTHiYXFdVcP/ejlOI2cl4urkufvWwsF4/3PuV/a/+9XEwqd9Hntnnq5NvqwmWndbts8+Sy8fpL+cvLr+6YxOMWj2W+Tk3z8c9Tm6ZyqCtbpVL51pWJkuf39vKUb7+uTJTivPGYSFMetD+m+UvzOGk9XdV9V+I66vZbKa8PTd+9WCdKvKy2Z3HbpTy5PF0myk9e/prXZes81B0jb8P1x7qWgbdTl0p1z7z/+ffBx77puDvfdfnM62iX41S3vfyYN33XlB/zNuNxrDsOzkNfdesr5aOU8u3mxyKmvBxK8yjFbZvGx+90V857aZ25uJ+xzLvwfuf15qgi2M24YvnLP01lngf/SHn7dRU3/+LU5VnTNU0piuPjl8nj4g9H/GHQNP/tdeTb9UkjX0dcVrxvcb7S+jSu7QcinjDN28zHa/0a55OX98NlrPEu39IPjdcZj4m31ZbPfFtdeN3Kl/Osv9uOt+fV0OPM85XKOi7rY6nkfdM0HzOXU9zvUr5yPvZxOfPxyVMdzx/XldctTYvTvV+xXmi6t+X9F48vHe9SOcU643Ger7TfGtelzHLat5hPrzvms7RPGnqc1eXf412OdbzOWJ4uo3y8j1cpP3kZS54HzV8qR/P6rWsZuC7H/de4mPc6XjauT3n0ulwWpWPj9evvuD/e77h9j1OK+fT4WEb+bF4uKn13YnlZXjaeJ6+3Xs7l3FXcZlxW5eW8xX2P88TxnjceX48Tj49l6n2L5eV1lr6Xef3qytuJ+anjeZ1i3tr4uxHr2lHW/0iNnCuV+IepVNGXwRVdXzh/sfIfD38ZlVf/UJQqt/clX178pYhfJP2tVEfTtM74A5PztLhe50PTrPTDo79LP6BxnjpxG3HdHq9xpbyVyi8eg5zG53lsOgaRt99lf0zzK0WlPEhdPmIZiPcvrxdeXkNpy6+nK8UybdNUvnmd97xKOR/n0ra1nlIZmZaL+1WXp1KZ5uVZV075Ov2dc/mKx5XKog/nIebTec/LJ89/KV/idZbKN+d1ahkfF42L2yqtz/PWHavSMnX5Fdcf61oGmq6/tT3zOM9Tx/OV8iOapu3lnIc6+XKzHKfStuq+I3lZ1P2dl4vLuq4c6uTrL2max9t1Wfnv+F0Q17VYpm1lkO+jy7GtTuS8vj5l4+PdZ3teJt/3o4o+uw301O+kQv/oE7lsflBNneGVB+Ul798Z+/e6L+/ly5fTMPJreEr9Q3/55Zfq035abxNt0/2alb95mvwg7OuL6vLv0r/V5aD+VH5focb5dVXqr+Unabu8AWAR3Ac875ddx33RVAfmydvWsY5l7Qcz836qdeWv/XEd0IN3Wkepr9ss9ESy6oW4X6f5tVTedkzKV6l+ul+gxFcKukyOHTuWhovg72jsa+q3vsyyXZWLv5PTvELPyxw/fjwNpzHr96+pT+kyOE+xn74fJu3y+yOl8nO90nfe63XSOMl/C+rq6DTHyf1W67ZVcvLkyepTWd/fjzZdvntN87gvrXn7J06cSMMm/p2I+6HkY1/3esFlvHZQD5v7t5/XHE6HYLeFA15RxV8mB7I+Ude9W9QPqmm+UkAsPoGUfuC6PHxSom05b8pnlx/PrmJgY9qexrdxuelHSkmfNc5vsFBQoR98rc9B52Hw/rU9nKVy9cmjrg5My3VFx3Fy8Xsg9Xmjh9alZbarhygULMyzTohfwaPjFx9G8YlPZZrvg5P54SQFDHG8dQ1oZqFt+LsT7U751hefmFU/tI5ptQU3XazK96+O8lQqw9Lx6sPHVfud100nz9NWR/scJwfMqhtal7bfVdsFk/M7j98P8fqaArqmed6/f199+q5LkGuqm0ql/VCqq6uLvCjG/BDsdnCYAa8DWX0J/UR+Lrbk1gVDHq/1RAoY3KI0TSunfngWEfBqPTpRKnDyj03+fs0m8R2I8XN893CXwNEnFf+HE/PkwF3lp3pVKjudqHzMFMjldUDTZjkJnz9/Pg3zetGXTs5uydUJzgFvfvLJTVO+fv2aLwBE9VD7oDqjMqujaQq0dnZ2ai+cXCZd3xAxLbd6djmhNnErt+pB3W9EV77L49bhac3r+9fGwUzfFsQ2yrPqUzw2DrJmofOI6l/d2xWkSx3tepz0ndTvu347YstwF8pHvFgpmdfvh3l9+YWy9sPf69jyns+TNwq4pVfj285N+r7rO+TvU5umu6WzyuMMnadVJ2SIF4irgGC3o6aAV3/XBSuzciAbTxI5fdmUN/3g1J3sND7m38k/DgpOpv0S5QGvg55ZOEhqa1moE8shfnZLQ1NZRT6ZqpxcZk0nqr50EjXlKR4bJV+I6GRVOvG5xT4u06f86+qFU92rfEp08vFyznfbbdZpghXVU7eKx2PhIFjbjvugVHdrvPSddZn4IsQpBtfz4Pcr1/1u+HVOTcF7ySwXZrFs4773DX7n9f1r4/oVj3nXYKWJAotZLiLr+DusIDKWr1NJqX7Mcpzqgt68vvs7XPqPi6zr74dbqtt+T+L64u9h3K+476V5NM11S+cmX3jHefU552OjY+/5YsqPg8qrtJ55idv2b48ugCK/Jm0e59yxI9jtQQFv/IHpexKahgPZUj/cSH3imgJiUf7zL4voll3f2025GPDqR2fWgNA/evlJoQ/9yPmHLtIxbCsrUz7ydczjVm+kgLd0XEzT61p4dEzzH9y+t9W0jlI5qfx90mhTyofqVdsFlFte+l7UxKDBdU3bihcPkU/YqufKpy9e1Jqjv32i9wktftcXxXnS9l2/S78pr1+/rj6VuSy8Hq9XZTNN/1etr1Qf+prH96+Njnn+3dFv0ay8Th8XpT4XfnWUN9XR/Lsi3mbXOtrlODkwjL+jrhNap/ep7ngor23f4T6/H2/evKk+1atbXzwHat9LXU1Uhv4+mMqz6fc10v462I6Un1ivfAwWdfenlF8d/66/xzhofXJwy2cH4JDoB7ipFa1LEIXVoVYftTb1vc26yhRw+OIwp5OtTviistFJNj+BY3EUENZR4MixmI7qvILqWRtWhsDnKM5Fq4OWXQyOW6Z0HRaTg4Nl/a81WA7dldCxPSq34rSf2l+1FuV1XMGUbqOq5UgnVALd5XJLp1rW8mPjO03oT3csxhLois5Rqg8EuquDYBeDlQc/bQ87YTXphKETx1G7iCl1T3A/XtEtSwLdw1G63e4HhNCfgtyxBLo6L6ku8N1cLXRjwODox6TpQQtuHY2PWjLdL3EefS6HTt0T6oKn2I0By9fUxYRuDNB398KFC6MJ3o8KWnYxOApk667BNJ5Ad3wU4OrWcenBnTGqewhH4wh0D5f6jiuozZUefsLR4gdICXRXDy27AAAAGC1adgEAADBaBLsAAAAYLYJdAAAAjBbBLgAAAEaLYBcAAACjRbALAACA0SLYBQAAwGgR7AIAAGC0CHYBAAAwWgS7AAAAGC2CXQAAAIwWwS4AAABGi2AXAAAAo0WwCwAAgNEi2AUAAMBIra39/5FB/kXFYcKNAAAAAElFTkSuQmCC;" vertex="1" parent="1">
          <mxGeometry x="1160" y="157" width="349" height="427.89" as="geometry" />
        </mxCell>
      </root>
    </mxGraphModel>
  </diagram>
</mxfile>
